<svg width="812" height="329" viewBox="0 0 812 329" fill="none" xmlns="http://www.w3.org/2000/svg">
<line x1="405.65" y1="328.175" x2="405.65" y2="272.96" stroke="black" stroke-width="0.5"/>
<line x1="480.363" y1="0.78298" x2="690.184" y2="120.772" stroke="black" stroke-width="0.5"/>
<line y1="-0.25" x2="72.2156" y2="-0.25" transform="matrix(0.407813 -0.913065 0.917827 0.396981 713.166 94.6011)" stroke="black" stroke-width="0.5"/>
<line y1="-0.25" x2="124.046" y2="-0.25" transform="matrix(0.787791 0.615943 -0.628192 0.778058 713.166 139.319)" stroke="black" stroke-width="0.5"/>
<path d="M450.68 177.034L689.56 125.49" stroke="black" stroke-width="0.5"/>
<line y1="-0.25" x2="84.7452" y2="-0.25" transform="matrix(-0.979369 -0.20208 0.208394 -0.978045 83.9971 313.207)" stroke="black" stroke-width="0.5"/>
<line y1="-0.25" x2="258.525" y2="-0.25" transform="matrix(0.906162 -0.422932 0.434169 0.900831 122.818 314.524)" stroke="black" stroke-width="0.5"/>
<line y1="-0.25" x2="101.993" y2="-0.25" transform="matrix(-0.81375 0.581215 -0.593572 -0.804781 266.055 23.3945)" stroke="black" stroke-width="0.5"/>
<line y1="-0.25" x2="237.209" y2="-0.25" transform="matrix(0.936799 0.349867 -0.35983 0.933018 169.671 98.4824)" stroke="black" stroke-width="0.5"/>
<line y1="-0.25" x2="237.209" y2="-0.25" transform="matrix(0.936799 0.349867 -0.35983 0.933018 444.096 198.6)" stroke="black" stroke-width="0.5"/>
</svg>
