<svg width="17" height="17" viewBox="0 0 17 17" fill="none" xmlns="http://www.w3.org/2000/svg">
<path d="M11 16H16" stroke="#E83434" stroke-width="2" stroke-linecap="round"/>
<path d="M1 3.5H6" stroke="#FBE62E" stroke-width="2" stroke-linecap="round"/>
<path d="M3.5 6L3.5 1" stroke="#FBE62E" stroke-width="2" stroke-linecap="round"/>
<path d="M7.81465 10.1852C8.96016 11.3306 10.8174 11.3307 11.9629 10.1852L14.9259 7.22221C16.0714 6.07674 16.0714 4.21955 14.9259 3.07407C13.7804 1.92859 11.9232 1.92859 10.7777 3.07407L9.29617 4.55555" stroke="#18E074" stroke-width="2" stroke-linecap="round"/>
<path d="M10.1853 7.81483C9.03984 6.66935 7.18261 6.66935 6.0371 7.81483L3.07407 10.7778C1.92857 11.9233 1.92857 13.7805 3.07407 14.9259C4.21958 16.0714 6.07681 16.0714 7.22231 14.9259L8.70383 13.4445" stroke="#18E074" stroke-width="2" stroke-linecap="round"/>
</svg>
