<svg width="255" height="228" viewBox="0 0 255 228" fill="none" xmlns="http://www.w3.org/2000/svg">
<path d="M196.771 127.681C199.306 128.891 199.894 128.769 200.343 126.985C200.917 124.739 201.082 124.951 193.03 119.203C184.121 112.874 184.098 112.857 183.721 115.614C183.422 117.923 191.011 124.986 196.771 127.681Z" fill="black"/>
<path d="M139.17 79.7828C139.783 81.38 139.923 81.4818 146.424 85.4531C148.784 86.9027 151.982 89.057 153.517 90.2709C158.819 94.4688 158.903 89.3841 153.61 84.6871C145.121 77.1491 137.155 74.4503 139.17 79.7828Z" fill="black"/>
<path d="M218.252 138.009C220.454 138.7 221.377 139.191 221.633 139.377C222.074 139.7 218.681 148.385 217.587 149.882C217.543 149.942 214.935 155.801 225.227 150.735C232.561 147.136 235.484 146.012 243.966 143.619C251.951 141.37 252.04 141.297 251.573 139.256C251.233 137.675 250.279 136.932 244.591 133.555C239.597 130.593 237.217 128.439 233.364 123.233C230.574 119.448 229.839 119.186 229.022 121.668C228.311 123.859 224.09 133.776 223.819 133.854C223.278 134.009 215.449 131.319 211.722 129.789C207.536 128.061 208.241 132.895 209.759 134.327C211.18 135.55 213.779 136.623 218.252 138.009Z" fill="black"/>
<path d="M163.566 99.134C167.411 104.058 176.228 111.928 176.906 111C178.417 108.933 177.783 107.413 173.858 103.671C165.75 95.952 165.582 94.0372 163.436 95.3168C162.386 95.9736 162.457 97.6795 163.566 99.134Z" fill="black"/>
<path d="M60.4292 61.0466C65.6674 62.1649 79.2383 60.461 79.2796 58.6992C79.3281 56.3914 74.8506 55.6452 62.6941 55.902C57.3086 56.0084 57.2719 60.3466 60.4292 61.0466Z" fill="black"/>
<path d="M34.0697 74.131C39.1908 72.1736 50.0008 63.3355 49.0953 61.8705C47.9045 59.9545 43.639 61.7994 33.2776 68.677C28.6835 71.7178 30.9691 75.2896 34.0697 74.131Z" fill="black"/>
<path d="M11.4852 95.4371C15.957 92.1801 24.1497 80.8236 22.8792 79.6749C21.2111 78.1744 17.5432 81.0915 9.26824 90.4592C5.59699 94.6045 8.77061 97.3838 11.4852 95.4371Z" fill="black"/>
<path d="M121.433 69.2056C122.929 69.8395 125.67 71.1084 127.539 72.0608C131.206 73.9148 131.502 73.9477 131.993 72.7898C133.247 69.7094 118.376 59.9869 116.45 62.6221C114.699 65.0176 116.233 67.0122 121.433 69.2056Z" fill="black"/>
<path d="M89.5774 61.8618C90.6294 62.0794 99.6126 62.1679 103.407 62.0933C105.907 62.0365 106.979 60.5692 104.686 59.0768C101.582 57.0372 93.752 55.9077 90.0971 56.9117C86.9151 57.756 87.6333 61.4514 89.5774 61.8618Z" fill="black"/>
</svg>
