<svg width="10" height="10" viewBox="0 0 10 10" fill="none" xmlns="http://www.w3.org/2000/svg">
<path fillRule="evenodd" clipRule="evenodd" d="M0.0247803 3.09523C0.213245 1.75178 1.45046 0.714285 2.94864 0.714285H7.05121C8.54938 0.714285 9.7866 1.75178 9.97507 3.09523H0.0247803ZM7.30762 0C7.0952 -8.62182e-09 6.923 0.159898 6.923 0.357142V1.78571C6.923 1.98296 7.0952 2.14285 7.30762 2.14285C7.52003 2.14285 7.69223 1.98296 7.69223 1.78571V0.357142C7.69223 0.159898 7.52003 8.62182e-09 7.30762 0ZM2.69223 0C2.47981 -8.62182e-09 2.30762 0.159898 2.30762 0.357142V1.78571C2.30762 1.98296 2.47981 2.14285 2.69223 2.14285C2.90465 2.14285 3.07685 1.98296 3.07685 1.78571V0.357142C3.07685 0.159898 2.90465 8.62182e-09 2.69223 0Z" fill="white"/>
<path opacity="0.3" fillRule="evenodd" clipRule="evenodd" d="M0 3.80957V7.26195C0 8.77415 1.32019 10 2.94872 10H7.05128C8.67981 10 10 8.77415 10 7.26195V3.80957H0ZM2.17929 5.71428C1.96688 5.71428 1.79468 5.55439 1.79468 5.35714C1.79468 5.1599 1.96688 5 2.17929 5H2.69211C2.90453 5 3.07673 5.1599 3.07673 5.35714C3.07673 5.55439 2.90453 5.71428 2.69211 5.71428H2.17929ZM4.35878 5.35714C4.35878 5.55439 4.53098 5.71428 4.7434 5.71428H5.25622C5.46863 5.71428 5.64083 5.55439 5.64083 5.35714C5.64083 5.1599 5.46863 5 5.25622 5H4.7434C4.53098 5 4.35878 5.1599 4.35878 5.35714ZM6.92288 5.35714C6.92288 5.55439 7.09508 5.71428 7.3075 5.71428H7.82032C8.03274 5.71428 8.20493 5.55439 8.20493 5.35714C8.20493 5.1599 8.03274 5 7.82032 5H7.3075C7.09508 5 6.92288 5.1599 6.92288 5.35714ZM1.79468 7.2619C1.79468 7.45915 1.96688 7.61904 2.17929 7.61904H2.69211C2.90453 7.61904 3.07673 7.45915 3.07673 7.2619C3.07673 7.06466 2.90453 6.90476 2.69211 6.90476H2.17929C1.96688 6.90476 1.79468 7.06466 1.79468 7.2619ZM4.35878 7.2619C4.35878 7.45915 4.53098 7.61904 4.7434 7.61904H5.25622C5.46863 7.61904 5.64083 7.45915 5.64083 7.2619C5.64083 7.06466 5.46863 6.90476 5.25622 6.90476H4.7434C4.53098 6.90476 4.35878 7.06466 4.35878 7.2619ZM6.92288 7.2619C6.92288 7.45915 7.09508 7.61904 7.3075 7.61904H7.82032C8.03274 7.61904 8.20493 7.45915 8.20493 7.2619C8.20493 7.06466 8.03274 6.90476 7.82032 6.90476H7.3075C7.09508 6.90476 6.92288 7.06466 6.92288 7.2619Z" fill="white"/>
</svg>
