<svg width="18" height="20" viewBox="0 0 18 20" fill="none" xmlns="http://www.w3.org/2000/svg">
<path fillRule="evenodd" clipRule="evenodd" d="M11.9163 1.50668C12.4832 0.836765 13.5015 0.794408 14.1221 1.41494L15.7029 2.99582C16.2546 3.54746 16.2913 4.42985 15.7874 5.02539L5.38171 17.323C5.33797 17.3747 5.28418 17.4169 5.22362 17.4472L3.11805 18.5H17C17.2762 18.5 17.5 18.7239 17.5 19C17.5 19.2761 17.2762 19.5 17 19.5H1.00001C0.768125 19.5 0.566666 19.3406 0.513389 19.1149C0.460112 18.8892 0.568999 18.6565 0.776407 18.5528L4.68461 16.5987L15.024 4.37945C15.1919 4.18094 15.1797 3.88681 14.9958 3.70293L13.4149 2.12204C13.2081 1.9152 12.8686 1.92932 12.6797 2.15262L2.4439 14.2495L1.47436 17.1581C1.38703 17.4201 1.10387 17.5617 0.8419 17.4743C0.579928 17.387 0.438348 17.1039 0.525672 16.8419L1.52567 13.8419C1.54579 13.7815 1.57723 13.7256 1.61832 13.677L11.9163 1.50668Z" fill="#D9D9D9"/>
</svg>
