<svg width="20" height="20" viewBox="0 0 20 20" fill="none" xmlns="http://www.w3.org/2000/svg">
<path fillRule="evenodd" clipRule="evenodd" d="M11.5358 2.23238C13.3461 2.57303 14.8727 3.44476 15.5851 4.23515C15.735 4.40143 15.7267 4.65642 15.5663 4.81261L13.362 6.9595C13.2266 7.09144 13.0192 7.1156 12.857 7.01836C11.1582 5.99975 9.74143 5.95679 8.67104 6.31718C7.58411 6.68314 6.8081 7.48029 6.43511 8.2122C5.67097 9.71164 5.76085 12.1686 7.88042 13.502C9.20843 14.3375 10.5824 14.3344 11.6971 13.8902C12.8281 13.4394 13.6629 12.5481 13.924 11.6468C13.988 11.4258 14.2191 11.2985 14.4401 11.3625C14.6612 11.4265 14.7885 11.6576 14.7244 11.8787C14.3795 13.0694 13.3311 14.136 12.0056 14.6643C10.6639 15.199 9.00795 15.1959 7.43667 14.2074C4.86034 12.5866 4.78623 9.61241 5.69263 7.83382C6.1549 6.92671 7.09232 5.96942 8.40514 5.52741C9.66834 5.1021 11.2385 5.16721 13.0062 6.1428L14.6771 4.51547C14.0099 3.94807 12.816 3.32124 11.3817 3.05134C9.72491 2.73959 7.7989 2.91389 6.05059 4.1608C3.94383 5.66337 3.08706 7.55133 2.94008 9.35754C2.79176 11.1802 3.36603 12.9379 4.15515 14.1402C5.10772 15.5914 7.85888 17.9953 12.5445 16.724C14.2263 16.2677 15.4012 15.1019 16.1381 13.6465C16.8155 12.3085 17.1124 10.742 17.0811 9.31689H10.5643V11.4846H12.6536C12.8837 11.4846 13.0703 11.6711 13.0703 11.9012C13.0703 12.1314 12.8837 12.3179 12.6536 12.3179H10.1476C9.91749 12.3179 9.73094 12.1314 9.73094 11.9012V8.90022C9.73094 8.67011 9.91749 8.48356 10.1476 8.48356H17.4799C17.6995 8.48356 17.8814 8.65394 17.8957 8.87304C18.0039 10.5273 17.6968 12.4127 16.8816 14.023C16.0634 15.639 14.7212 16.9968 12.7627 17.5282C7.65426 18.9143 4.56264 16.2796 3.45848 14.5974C2.57893 13.2574 1.94452 11.3173 2.10949 9.28996C2.27581 7.24609 3.25429 5.13159 5.5667 3.48235C7.53879 2.07583 9.70817 1.88848 11.5358 2.23238Z" fill="#D9D9D9"/>
</svg>
