<svg width="36" height="27" viewBox="0 0 36 27" fill="none" xmlns="http://www.w3.org/2000/svg">
<path d="M4.39566 14.2976C4.47781 14.3836 4.53359 14.4491 4.55075 14.4839C4.52418 14.4452 4.4706 14.3813 4.39566 14.2976Z" fill="#18E074"/>
<path d="M7.7171 18.25C7.17137 18.2397 5.80703 17.9301 4.71555 16.7737C3.35121 15.3281 2.12403 14.3496 1.89238 14.1034C1.76123 13.964 1.12724 13.4106 1.52279 12.7438C1.72788 12.398 2.35395 12.4581 2.69757 12.7438C2.86402 12.8822 4.44467 14.2686 4.55075 14.4839C4.29704 14.1146 1.58029 11.4457 1.31899 11.1883C0.944023 10.8191 0.876211 10.2733 1.24156 9.89027C1.5618 9.55456 2.05819 9.53777 2.41078 9.83991L5.23591 12.7708C5.28504 12.8218 5.36928 12.8115 5.40479 12.7503V12.7503C5.42825 12.7098 5.42259 12.6588 5.39084 12.6245L2.09086 9.05659C1.7769 8.74885 1.55119 8.04386 2.05819 7.73613C2.618 7.39634 3.16169 7.87601 3.34328 8.10541L6.10163 11.4855C6.14836 11.5428 6.2303 11.5566 6.29319 11.5177V11.5177C6.36923 11.4708 6.38672 11.368 6.33001 11.299C5.65147 10.4728 4.39188 8.90336 4.0323 8.31803C3.65284 7.70032 3.9845 7.25495 4.19776 7.10947C4.45545 6.9337 5.07533 6.90031 5.44425 7.5459C5.79723 8.1636 7.20918 10.1309 7.87103 11.0373C8.06077 11.2971 8.44463 11.7132 8.84174 11.5968C9.33813 11.4513 9.42638 10.7239 9.50359 10.2651C9.58081 9.80634 10.011 8.88873 10.9597 8.87754C11.9083 8.86635 11.6105 9.81753 11.4561 10.0413C11.3016 10.2651 10.728 11.2835 10.9155 12.3577C11.1031 13.432 11.4891 14.5958 10.9155 16.0058C10.4567 17.1338 9.73743 17.8078 9.22266 17.957" stroke="#18E074" strokeLinecap="round" strokeLinejoin="round"/>
<circle cx="25.125" cy="16.125" r="9.5" stroke="#18E074" strokeLinecap="round"/>
<path d="M29.125 12.125L21.125 15.125" stroke="#18E074" strokeLinecap="round"/>
<path d="M21.125 12.125L29.125 15.125" stroke="#18E074" strokeLinecap="round"/>
<path d="M3.94015 3.65599V3.65599C4.83576 2.99227 6.08277 3.08645 6.86852 3.87717L7.13415 4.14447" stroke="#18E074" strokeLinecap="round"/>
<path d="M5.04747 1.61915V1.61915C5.67297 1.3151 6.41611 1.38724 6.97145 1.80592L7.10446 1.9062" stroke="#18E074" strokeLinecap="round"/>
<path d="M21.125 18.6806C21.125 18.629 21.125 18.6032 21.1269 18.5814C21.1481 18.3397 21.3397 18.1481 21.5814 18.1269C21.6032 18.125 21.629 18.125 21.6806 18.125H28.5694C28.621 18.125 28.6468 18.125 28.6686 18.1269C28.9103 18.1481 29.1019 18.3397 29.1231 18.5814C29.125 18.6032 29.125 18.629 29.125 18.6806V19.125C29.125 21.3341 27.3341 23.125 25.125 23.125V23.125C22.9159 23.125 21.125 21.3341 21.125 19.125V18.6806Z" fill="#18E074"/>
</svg>
