<svg width="18" height="19" viewBox="0 0 18 19" fill="none" xmlns="http://www.w3.org/2000/svg">
<path fillRule="evenodd" clipRule="evenodd" d="M8.03763 1.12037C8.22748 0.957651 8.50833 0.960181 8.69521 1.1263L16.202 7.79897C16.5456 8.10442 16.3295 8.67267 15.8698 8.67267H15C14.1716 8.67267 13.5 9.34425 13.5 10.1727V17.1727C13.5 17.4488 13.2761 17.6727 13 17.6727H3.74999C3.47385 17.6727 3.24999 17.4488 3.24999 17.1727V10.2977C3.24999 10.0215 3.02613 9.79767 2.74999 9.79767C2.47385 9.79767 2.24999 10.0215 2.24999 10.2977V17.1727C2.24999 18.0011 2.92156 18.6727 3.74999 18.6727H13C13.8284 18.6727 14.5 18.0011 14.5 17.1727V10.1727C14.5 9.89653 14.7238 9.67267 15 9.67267H15.8698C17.2491 9.67267 17.8972 7.9679 16.8663 7.05156L9.35958 0.378887C8.79894 -0.119456 7.95637 -0.127048 7.38684 0.361115L0.174591 6.54305C-0.0350723 6.72276 -0.0593529 7.03841 0.120358 7.24807C0.30007 7.45773 0.615719 7.48201 0.825382 7.3023L8.03763 1.12037Z" fill="white"/>
</svg>
