<svg width="116" height="61" viewBox="0 0 116 61" fill="none" xmlns="http://www.w3.org/2000/svg">
<path d="M81.1652 32.5278C81.1385 32.5769 81.1263 32.6288 81.1458 32.6864C81.1494 32.6971 81.1554 32.7073 81.1601 32.7178C81.1546 32.7231 81.1527 32.7281 81.162 32.7323C81.1639 32.7331 81.1659 32.7342 81.1678 32.7351C81.2493 32.8977 81.4458 33.0291 81.6204 33.1269C81.705 33.1744 81.7379 33.0237 81.7677 32.8754C81.8318 32.8243 81.8381 32.7159 81.8647 32.6264C81.8884 32.6251 81.9179 32.651 81.9571 32.7193C82.4724 32.0143 82.9906 31.3111 83.5216 30.6166C83.1166 31.3714 82.719 32.1302 82.3341 32.8955C82.2489 32.9702 82.1724 33.0453 82.2377 33.1316C82.2871 33.1969 82.3643 33.2204 82.4513 33.2288L81.5294 34.984C81.2405 35.4126 80.9422 35.8356 80.6707 36.2748C80.3777 36.7414 80.0847 37.209 79.8264 37.6952C79.6948 37.9458 80.0287 38.181 80.2454 38.095C80.0834 38.4933 79.9214 38.8915 79.7589 39.2896C79.7261 39.2949 79.6937 39.2999 79.6566 39.3087C79.5105 39.3431 79.5253 39.5428 79.4709 39.6654C79.346 39.9468 79.0537 40.7188 78.9433 41.0063C78.9601 41.04 78.9742 41.0747 78.9892 41.1091C78.9521 41.1902 78.915 41.2713 78.8755 41.3513C78.8691 41.3643 78.8205 41.3782 78.8367 41.3752C78.919 41.3602 79.0003 41.3431 79.0817 41.3261C79.1429 41.4741 79.2088 41.6205 79.3135 41.752C79.3573 41.807 79.4015 41.6681 79.4286 41.6157C79.4978 41.4823 79.5595 41.3449 79.6195 41.2069C79.6954 41.2173 79.7607 41.2168 79.8185 41.2083C79.8535 41.231 79.891 41.2539 79.9334 41.277C79.9958 41.3109 80.0001 41.2507 79.9813 41.1524C80.2136 41.012 80.2514 40.6617 80.3786 40.3711C80.5302 40.025 80.6788 39.6777 80.8281 39.3305C80.8657 39.3179 80.9021 39.3041 80.9305 39.29C81.0506 39.2305 81.0571 39.0731 81.1174 38.963C81.1949 38.8216 81.2697 38.6784 81.3441 38.5351C81.2719 38.7274 81.1997 38.9196 81.1327 39.1138C81.0688 39.2841 81.005 39.4544 80.941 39.6246C80.8763 39.7498 80.8237 39.8783 80.7954 40.0131C80.7916 40.0233 80.7877 40.0334 80.7839 40.0436C80.7284 40.1939 80.5859 40.3326 80.5563 40.4868C80.5264 40.5501 80.5174 40.615 80.5567 40.6833C80.5591 40.6876 80.5634 40.6911 80.5662 40.6952C80.5235 40.7224 80.5206 40.7935 80.5183 40.8647C80.4904 40.9149 80.4873 40.9846 80.4842 41.0543C80.4703 41.1001 80.4608 41.1329 80.4497 41.1699C80.444 41.1861 80.4339 41.213 80.4285 41.2283C80.288 41.6284 80.1294 41.8091 80.1914 42.0281C80.1724 42.0821 80.1536 42.1363 80.1346 42.1904C80.1111 42.2249 80.0512 42.2794 80.0911 42.2789C80.0951 42.2788 80.0995 42.2789 80.1035 42.2789C80.085 42.3315 80.0668 42.3842 80.0482 42.4368C80.0667 42.4443 80.0786 42.4523 80.0939 42.4601C80.0426 42.58 79.9818 42.7181 79.9418 42.8134C79.8985 42.917 79.7937 43.0138 79.7533 43.1183C79.6863 43.1975 79.66 43.2738 79.7286 43.3436C79.8024 43.4185 79.913 43.4793 80.026 43.5122C80.1155 43.5527 80.2116 43.5771 80.2946 43.5757C80.3752 43.5743 80.4054 43.5173 80.4117 43.4341C80.4661 43.3332 80.4557 43.1771 80.5002 43.0669C80.5795 43.0724 80.6573 43.0676 80.716 43.0522C80.8561 43.0155 80.8213 42.8142 80.874 42.6952C80.9647 42.4681 81.0774 42.1854 81.1856 41.9098C81.3502 41.6298 81.4995 41.341 81.655 41.0558C81.8026 40.7849 81.9477 40.5127 82.094 40.241C81.9991 40.5827 81.9104 40.9266 81.8238 41.2712C81.2611 42.6382 80.6953 44.0039 80.1266 45.3682C80.0244 45.6081 79.8896 45.8348 79.8197 46.088C79.8002 46.1588 79.7782 46.2355 79.7578 46.3109C79.7026 46.3526 79.6585 46.3936 79.7087 46.4307C79.7146 46.4351 79.7211 46.4373 79.7272 46.4409C79.6749 46.7075 79.7195 46.9176 80.2186 46.7687C80.3132 46.7405 80.3265 46.6252 80.3794 46.5528C80.6084 46.2391 80.8786 45.8583 81.0983 45.5509C81.3094 45.2474 81.4919 44.987 81.6733 44.7241C81.6404 44.8348 81.6166 44.9157 81.5792 45.0422C81.4442 45.5362 81.268 46.0147 81.1239 46.5052C81.0893 46.623 81.0004 46.734 81.0324 46.8629C81.0652 46.9951 81.1705 47.261 81.301 47.2181C81.3936 47.1877 81.4794 47.1268 81.5595 47.048C81.5738 47.0565 81.5895 47.0623 81.6086 47.0612C81.6848 47.0571 81.6908 46.9832 81.6884 46.9005C82.0156 46.4629 82.2215 45.7301 82.3191 45.4832C82.7326 44.3782 83.1397 43.2705 83.5474 42.163C83.5541 42.2054 83.5622 42.248 83.5667 42.2901C83.6583 42.2897 83.755 42.3028 83.8479 42.3056C83.8107 42.3896 83.765 42.4921 83.738 42.5529C83.6818 42.5183 83.6161 42.4719 83.5289 42.3976C83.4221 42.6903 83.3143 42.9825 83.2083 43.2755C83.0653 43.6709 82.8621 44.0272 82.8674 44.4383C82.8339 44.517 82.8054 44.5977 82.7854 44.6819C82.7745 44.7282 82.8274 44.6724 82.8843 44.6195C82.908 44.7626 82.9578 44.9129 83.0468 45.0746C83.1008 45.1729 83.2774 45.0288 83.3364 44.9509C83.4835 44.7571 83.5711 44.5289 83.6455 44.2933C83.6896 44.3051 83.7585 44.2983 83.8633 44.2627C84.0715 44.7146 84.1451 44.3861 84.1793 44.2463C84.2061 44.1892 84.2348 44.1331 84.2625 44.0765C84.3551 44.022 84.3794 43.9157 84.3973 43.805C84.5249 43.5555 84.6564 43.3081 84.7843 43.0588C84.77 43.2378 84.8161 43.3633 85.2197 43.0435C85.3111 43.1708 85.3893 43.2413 85.3732 43.1283C85.4013 43.0313 85.4306 42.9348 85.4589 42.8379C85.4839 42.8153 85.502 42.8014 85.5288 42.7765C85.7218 42.5972 85.7203 42.2956 85.817 42.0556C85.8214 42.0447 85.9418 41.7487 86.0412 41.5036C86.0309 41.5442 86.0209 41.5848 86.0108 41.6254C86.0006 41.6652 85.9901 41.7049 85.9802 41.7448C85.9288 41.8606 85.7976 41.9745 85.8713 42.0961C85.8746 42.1014 85.8774 42.1055 85.8806 42.1107C85.8252 42.2571 85.7379 42.4422 86.076 42.3864C86.3402 42.6888 86.4236 42.4408 86.4722 42.2704C86.5634 42.2136 86.5246 42.0497 86.5607 41.9464C86.676 41.616 86.8084 41.2732 86.9321 40.9466C86.9633 40.8662 86.9946 40.786 87.0257 40.7056L87.087 40.7378L89.5889 35.9742C89.6394 35.9535 89.6996 35.9218 89.7671 35.8813C89.8431 35.9266 89.895 35.9212 89.8742 35.8128C89.9021 35.7941 89.9289 35.777 89.9594 35.7552C90.1673 35.6067 90.1525 35.3016 90.2458 35.0735C90.3532 34.8108 90.4566 34.5464 90.5618 34.2827C90.7306 34.3724 90.935 34.4215 91.1108 34.4029C91.1146 34.4042 91.1166 34.4055 91.1204 34.4068C91.1356 34.4123 91.1434 34.4081 91.147 34.3984C91.1512 34.3977 91.1558 34.3977 91.1599 34.3969C91.2159 34.3866 91.2357 34.3398 91.2481 34.2852C91.3657 34.3025 91.4789 34.3017 91.5661 34.2553C91.6334 34.2195 91.9988 33.1967 92.0008 33.1911C92.1037 32.889 92.1826 32.6631 92.2665 32.3875C92.2993 32.3443 92.3158 32.2887 92.3251 32.2276C92.3516 32.1844 92.3844 32.139 92.3427 32.1116C92.3413 32.1107 92.3404 32.1102 92.339 32.1093C92.3447 32.0585 92.352 32.0089 92.367 31.9653C92.4794 31.6392 92.5898 31.3121 92.7022 30.986C93.2584 29.3718 93.0522 29.9622 93.6729 28.2584C93.6998 28.1862 93.7278 28.1145 93.7549 28.0424L94.7935 26.065C94.6521 26.5365 94.4991 27.0496 94.4556 27.2127C94.4131 27.3725 94.3834 27.5366 94.3472 27.6985C94.351 27.7599 94.2886 27.8729 94.3586 27.8828C94.5861 27.9148 94.7442 27.9171 94.8602 27.8939C94.9347 27.9497 94.9781 27.9638 94.9263 27.8845C94.9269 27.8818 94.9276 27.879 94.9282 27.8763C95.1833 27.7883 95.1839 27.5291 95.3496 27.1434C95.4687 26.8663 95.5839 26.5876 95.6999 26.3091C96.3577 24.7298 95.7521 26.1657 96.336 24.7867C96.5204 24.3731 96.5539 24.2818 96.7415 23.911C96.7865 23.8221 96.841 23.7379 96.8819 23.647C97.035 23.3065 97.14 22.9424 97.2537 22.5856C97.3643 22.2463 97.4443 21.8961 97.5074 21.5409C97.5301 21.4136 97.544 21.2836 97.5735 21.1585C97.6348 20.8982 97.7079 20.6421 97.777 20.3845L98.8384 18.3637C98.8617 18.3602 98.8849 18.3561 98.9081 18.3521C98.9527 18.3977 99.0002 18.4405 99.0563 18.4745C99.1095 18.5067 99.0759 18.4008 99.0679 18.3286C99.1009 18.3242 99.1339 18.3184 99.1671 18.3166C99.525 17.5372 99.8306 16.7335 100.164 15.9426C100.182 15.9609 100.203 15.9751 100.232 15.98C100.618 16.047 100.758 15.651 100.864 15.4521C101 15.199 101.14 14.9366 101.256 14.6741C101.331 14.5064 101.396 14.3345 101.466 14.1647C101.715 13.5358 101.888 12.8772 102.065 12.2203L102.59 11.2216L102.412 11.1282C102.458 11.1266 102.439 11.0497 102.443 11.0083C102.444 10.9906 102.45 10.9635 102.455 10.9385C102.502 10.7663 102.549 10.5943 102.593 10.4213C102.794 9.79522 103.012 9.17565 103.212 8.54914C103.212 8.54809 103.472 7.72767 103.482 7.64327C103.49 7.57079 103.455 7.49257 103.442 7.41726C103.268 7.4554 103.064 7.45068 102.895 7.49578C102.895 7.49759 102.893 7.50305 102.893 7.50484C102.891 7.50258 102.888 7.50066 102.886 7.49841C102.886 7.49899 102.886 7.49805 102.886 7.49841C102.863 7.50496 102.841 7.51262 102.819 7.52148C102.845 7.40661 102.876 7.28599 102.785 7.19725C102.674 7.08867 102.498 7.09777 102.334 7.08346C102.361 7.02115 102.369 7.00421 102.433 6.85527C102.461 6.79058 102.486 6.73602 102.512 6.67989C102.532 6.65855 102.548 6.63778 102.538 6.62041C102.57 6.54281 102.595 6.46265 102.606 6.36753C102.666 6.38309 102.724 6.38798 102.777 6.36915C102.954 6.30625 102.923 6.0576 102.994 5.9004C103.306 5.20184 103.593 4.4914 103.874 3.77845C103.887 3.70989 103.983 3.61919 103.912 3.57269C103.828 3.51799 103.729 3.46591 103.629 3.42906C103.666 3.32792 103.703 3.22712 103.737 3.12473C103.759 3.05519 103.875 2.9482 103.792 2.91142C103.662 2.85363 103.524 2.85153 103.386 2.85377C103.336 2.80003 103.282 2.74974 103.216 2.7125C103.162 2.68168 103.178 2.78228 103.175 2.85173C103.156 2.85094 103.138 2.85181 103.119 2.85013C102.874 3.33404 102.64 3.82353 102.408 4.31398C102.382 4.28397 102.356 4.25394 102.335 4.22301C102.302 4.25638 102.266 4.28795 102.232 4.3202C102.284 4.19346 102.336 4.06649 102.382 3.93732C102.421 3.82889 102.602 3.63431 102.465 3.59898C102.29 3.55362 102.143 3.54791 102.017 3.5692C101.996 3.53968 101.973 3.50952 101.947 3.47889C102.039 3.21232 102.114 2.88268 101.681 3.33851C101.671 3.22227 101.658 3.13943 101.641 3.08548C101.678 3.04089 101.69 2.99939 101.636 2.96506C101.609 2.9478 101.585 2.93677 101.559 2.92396C101.481 2.80504 101.342 2.70911 101.103 2.66205C100.934 2.62887 100.951 2.90099 100.887 3.02696C100.705 3.3867 100.538 3.75343 100.376 4.12292C100.361 4.09141 100.349 4.0615 100.332 4.02826C100.283 3.92923 100.285 4.2184 100.251 4.30902C100.225 4.37692 100.197 4.44394 100.17 4.51156C100.128 4.54452 100.087 4.57927 100.051 4.61673C99.9826 4.49681 99.8396 4.44629 99.5713 4.5435C99.5143 4.47373 99.41 4.42774 99.2233 4.4385C99.037 4.44925 98.9955 4.67333 98.911 4.8099C98.8029 4.9847 98.7364 5.18177 98.6489 5.36763C98.6112 5.44772 98.5735 5.52784 98.5357 5.60792C98.5344 5.60555 98.5326 5.60334 98.5313 5.60082C98.543 5.56698 98.5499 5.54588 98.5881 5.44937C98.565 5.44738 98.5405 5.44145 98.5167 5.43751C98.56 5.28856 98.6043 5.14 98.6487 4.99144C98.7077 4.80952 98.7663 4.62746 98.8253 4.44553C98.9389 4.09476 99.216 3.23608 99.3474 2.84294C99.377 2.7544 99.4796 2.66824 99.4814 2.57945C99.5291 2.52299 99.5479 2.47143 99.4946 2.43333C99.3688 2.3435 99.2017 2.26335 99.05 2.24784C99.0075 2.23464 98.965 2.2222 98.9243 2.21401C98.879 2.2049 98.8612 2.23291 98.8585 2.28099C98.7835 2.34701 98.8153 2.50939 98.7811 2.61137C98.7686 2.64856 98.7432 2.72863 98.7273 2.77659C98.7265 2.77599 98.7259 2.7758 98.7251 2.77519C98.5102 3.37638 98.3149 3.98537 98.1297 4.59819C98.0732 4.55642 98.0133 4.52303 97.9452 4.50891C97.8216 4.48325 97.8117 4.66969 97.7578 4.75805C97.6407 4.9498 97.5354 5.14828 97.4328 5.34795C97.3898 5.43163 97.3488 5.51648 97.3066 5.60057C97.2823 5.58657 97.2566 5.57514 97.2292 5.56603C97.1133 5.52786 97.1179 5.72992 97.0703 5.81648C97.0302 5.88946 96.9926 5.96373 96.9544 6.03773C96.93 6.04638 96.9068 6.0537 96.8801 6.06479C96.8305 6.08544 96.7922 6.11652 96.7587 6.15212C96.7899 6.05202 96.821 5.95186 96.8487 5.85048C96.9214 5.58451 97.3121 4.92511 96.4123 4.9924C96.2795 5.00233 96.2984 5.19224 96.2493 5.2961C96.2427 5.30995 96.2356 5.32675 96.229 5.34088C96.2058 5.35998 96.1859 5.3886 96.1672 5.42083C96.0781 5.42469 96.0869 5.55115 96.0573 5.6296C95.8832 5.94117 95.7011 6.24824 95.5098 6.54997C95.1072 7.18571 94.6994 7.81887 94.3362 8.4773C93.6611 9.7023 92.9719 10.9199 92.324 12.1595C91.6365 13.5161 90.9781 14.8873 90.3503 16.2733C90.2482 16.2284 90.1812 16.3802 90.1283 16.4565C89.9981 16.6441 89.908 16.8553 89.8097 17.0608C89.5644 17.5739 89.3566 18.0805 89.1456 18.5978C89.111 18.5972 89.0676 18.6835 89.0447 18.7219C88.9735 18.8416 88.9291 18.9753 88.8724 19.1025C88.8705 19.1069 88.7306 19.4198 88.5995 19.7221C88.5963 19.7217 88.5932 19.7218 88.59 19.7217C88.5636 19.7095 88.538 19.6969 88.5143 19.6828C88.5093 19.699 88.5038 19.715 88.4987 19.7311C88.4961 19.7319 88.4931 19.732 88.4905 19.7329C88.3255 19.7953 88.3792 20.0382 88.3224 20.1905C88.186 20.556 88.0494 20.9218 87.9118 21.2871C87.8849 21.2747 87.857 21.2647 87.827 21.2593C87.6885 21.2344 87.7382 21.4736 87.6979 21.5825C87.6975 21.5836 87.5943 21.8764 87.494 22.1634C87.4911 22.1687 87.4883 22.1741 87.4853 22.1793C87.1148 22.8423 86.7371 23.5014 86.3526 24.1566C86.0504 24.6673 85.7465 25.1769 85.4398 25.6849C85.4344 25.6897 85.4292 25.6947 85.4238 25.6995C85.3529 25.7612 85.1835 25.7812 85.2032 25.8777C85.0927 25.9544 84.9877 26.0365 85.1585 26.1436C84.9344 26.5116 84.7109 26.8798 84.4824 27.2454C83.8071 28.3262 83.7507 28.3987 83.0727 29.4575C82.836 29.8271 82.6008 30.1976 82.3649 30.5676C81.9606 31.224 81.6892 31.6389 81.3372 32.2914C81.2938 32.3718 81.2095 32.4461 81.1652 32.5278ZM102.886 7.49841C102.889 7.49747 102.892 7.49654 102.895 7.49578C102.923 7.39997 102.921 7.39807 102.886 7.49841ZM84.4109 28.5065C84.5699 28.2578 84.7229 28.0176 85.0099 27.5583C85.0618 27.4752 85.1119 27.3911 85.1636 27.3078C85.2205 27.3383 85.281 27.3659 85.3408 27.394C85.367 27.4217 85.397 27.4453 85.4301 27.4656C85.4181 27.4889 85.4059 27.5122 85.3937 27.5354C85.3537 27.5337 85.3039 27.5348 85.2557 27.5355C85.2401 27.5269 85.225 27.5163 85.2094 27.5086C85.1746 27.4913 85.1552 27.507 85.1441 27.5404C85.0275 27.5649 85.0128 27.7287 84.9438 27.8175C84.183 28.7976 84.5541 28.3243 84.4109 28.5065ZM83.5935 39.9026C83.6316 39.923 83.6702 39.9429 83.7099 39.9597C83.5929 40.2764 83.4756 40.5931 83.3588 40.9099C83.3375 40.9467 83.3164 40.9836 83.2949 41.0203C83.3673 40.7206 83.4372 40.4203 83.507 40.1198C83.5156 40.0988 83.5793 39.942 83.5935 39.9026ZM84.4006 40.6546C84.4539 40.661 84.5069 40.6643 84.5596 40.6652C84.5267 40.7286 84.5019 40.7938 84.4934 40.8624C84.3886 41.0948 84.3229 41.2372 84.1866 41.5434C84.1848 41.543 84.1831 41.5424 84.1814 41.5419C84.1972 41.4566 84.2108 41.3703 84.2327 41.2876C84.2727 41.1367 84.34 40.8908 84.4006 40.6546ZM96.3462 23.1089L96.6045 22.617C96.5264 22.8692 96.4468 23.1218 96.3395 23.3602C96.2967 23.4552 96.2401 23.5433 96.1931 23.6363C96.1711 23.6799 96.1634 23.6985 96.145 23.7356C96.2109 23.5262 96.2794 23.3179 96.3462 23.1089ZM91.568 32.5247C91.5699 32.5318 91.5731 32.5381 91.5762 32.5445C91.5553 32.6064 91.5311 32.6778 91.5084 32.7436C91.5283 32.6707 91.548 32.5976 91.568 32.5247ZM100.665 15.6748C100.666 15.7195 100.649 15.7783 100.602 15.8589C100.622 15.7972 100.644 15.7364 100.665 15.6748Z" fill="#E83434"/>
<path d="M16.401 37.5122C16.3859 37.566 16.3855 37.6193 16.4173 37.6711C16.4233 37.6807 16.4314 37.6893 16.4383 37.6985C16.4342 37.705 16.4334 37.7102 16.4434 37.7122C16.4454 37.7126 16.4476 37.7133 16.4497 37.7137C16.5653 37.8541 16.7861 37.9385 16.9781 37.9951C17.0711 38.0225 17.0697 37.8684 17.0657 37.7171C17.1168 37.653 17.0989 37.5459 17.1049 37.4527C17.1277 37.4463 17.1623 37.4649 17.2157 37.5228C17.5613 36.7209 17.9102 35.9201 18.2735 35.1249C18.0465 35.9509 17.8276 36.7791 17.6224 37.6108C17.5559 37.7025 17.498 37.7928 17.5809 37.8624C17.6437 37.9151 17.7241 37.9208 17.8108 37.9097L17.3023 39.8259C17.1159 40.3081 16.9191 40.7867 16.752 41.2753C16.5701 41.7954 16.3884 42.3164 16.2447 42.8479C16.1721 43.1214 16.5499 43.2765 16.7421 43.1445C16.6727 43.5688 16.6033 43.9932 16.5334 44.4174C16.5026 44.4299 16.4721 44.442 16.4379 44.4587C16.3031 44.5248 16.362 44.7162 16.3361 44.8479C16.2769 45.1499 16.1636 45.9676 16.1199 46.2724C16.1437 46.3016 16.1652 46.3323 16.1875 46.3625C16.1693 46.4498 16.1512 46.5371 16.1305 46.6239C16.1271 46.638 16.0829 46.6623 16.098 46.6559C16.1749 46.623 16.2503 46.5882 16.3259 46.5535C16.4186 46.6842 16.5152 46.8122 16.6466 46.9172C16.7016 46.9611 16.7137 46.8158 16.7286 46.7587C16.7663 46.6132 16.796 46.4656 16.8238 46.3177C16.9001 46.3109 16.9636 46.2959 17.0181 46.2749C17.0573 46.2891 17.0989 46.3031 17.1454 46.3162C17.2138 46.3354 17.2045 46.2758 17.1644 46.1841C17.3597 45.9956 17.3187 45.6456 17.3781 45.334C17.4489 44.9629 17.5165 44.5912 17.5849 44.2196C17.6187 44.199 17.6512 44.1773 17.6758 44.1573C17.7796 44.0726 17.751 43.9176 17.7853 43.7969C17.8294 43.6418 17.8705 43.4856 17.9111 43.3293C17.8835 43.5328 17.8559 43.7363 17.8337 43.9405C17.8093 44.1208 17.7849 44.301 17.7603 44.4812C17.7252 44.6177 17.7024 44.7546 17.7048 44.8923C17.7033 44.9031 17.7018 44.9138 17.7004 44.9246C17.6796 45.0835 17.5716 45.2504 17.577 45.4073C17.5619 45.4757 17.5676 45.5409 17.6211 45.5989C17.6244 45.6025 17.6294 45.6049 17.633 45.6084C17.5974 45.6443 17.6104 45.7142 17.624 45.7842C17.6079 45.8394 17.6204 45.908 17.6329 45.9767C17.6296 46.0244 17.6275 46.0584 17.625 46.0971C17.623 46.1141 17.6191 46.1426 17.6173 46.1587C17.5692 46.5801 17.4548 46.7915 17.5639 46.9912C17.5574 47.0481 17.5512 47.1051 17.5446 47.1621C17.5294 47.2009 17.4832 47.2674 17.5219 47.258C17.5258 47.257 17.5301 47.2561 17.534 47.2552C17.5276 47.3106 17.5216 47.3661 17.5152 47.4215C17.5349 47.4247 17.5482 47.4299 17.5649 47.434C17.5416 47.5623 17.513 47.7105 17.4952 47.8124C17.476 47.923 17.3953 48.0407 17.3792 48.1515C17.3315 48.2436 17.3228 48.3239 17.4052 48.3766C17.4938 48.4333 17.6151 48.468 17.7326 48.4749C17.8289 48.4945 17.928 48.4969 18.0087 48.4771C18.0869 48.4578 18.1037 48.3956 18.0914 48.313C18.122 48.2025 18.0771 48.0526 18.0959 47.9353C18.1745 47.923 18.2493 47.9011 18.3031 47.873C18.4315 47.8061 18.3528 47.6176 18.3778 47.4899C18.4157 47.2483 18.4628 46.9475 18.5069 46.6548C18.6052 46.3452 18.6865 46.0304 18.7747 45.7178C18.8584 45.4209 18.9393 45.1232 19.0216 44.8258C19.005 45.1801 18.995 45.5351 18.9872 45.8903C18.7426 47.3482 18.4945 48.8054 18.2434 50.262C18.197 50.5187 18.1161 50.7697 18.1042 51.0321C18.1009 51.1055 18.0966 51.1852 18.0935 51.2632C18.0489 51.3161 18.015 51.3659 18.0722 51.3909C18.0789 51.3939 18.0858 51.3946 18.0925 51.3967C18.1008 51.6683 18.1909 51.8632 18.6445 51.6071C18.7304 51.5585 18.7178 51.4432 18.7532 51.3608C18.9067 51.0041 19.0856 50.5727 19.2314 50.2242C19.3698 49.8813 19.4898 49.5868 19.6081 49.2902C19.6007 49.4054 19.5955 49.4897 19.5872 49.6213C19.5654 50.1329 19.5 50.6386 19.4686 51.1488C19.461 51.2714 19.399 51.3994 19.4589 51.518C19.5202 51.6395 19.682 51.8754 19.7997 51.8046C19.8833 51.7543 19.9533 51.6759 20.0139 51.5813C20.0297 51.5864 20.0463 51.5885 20.0647 51.5832C20.1381 51.5623 20.1275 51.4889 20.1068 51.4088C20.3285 50.9093 20.3663 50.1492 20.4066 49.8868C20.5641 48.7175 20.7147 47.5469 20.866 46.3765C20.8819 46.4164 20.8993 46.4561 20.913 46.4962C21.0023 46.4754 21.0995 46.4667 21.1906 46.4488C21.173 46.5389 21.1513 46.649 21.1385 46.7143C21.0759 46.6931 21.0016 46.6624 20.9001 46.6094C20.861 46.9185 20.8209 47.2273 20.7827 47.5366C20.7312 47.9539 20.6123 48.3465 20.7088 48.746C20.6937 48.8302 20.6839 48.9153 20.6831 49.0018C20.6827 49.0494 20.7218 48.9832 20.7656 48.919C20.8205 49.0532 20.9025 49.1887 21.0253 49.3266C21.0998 49.4103 21.2398 49.2306 21.2801 49.1416C21.3804 48.9199 21.415 48.6779 21.4353 48.4317C21.4809 48.4334 21.5465 48.4115 21.6407 48.3534C21.9442 48.7477 21.9429 48.4111 21.9452 48.2672C21.9586 48.2056 21.9742 48.1445 21.9886 48.0832C22.0667 48.0094 22.0667 47.9004 22.0596 47.7884C22.1286 47.5168 22.2018 47.2463 22.2711 46.9748C22.2968 47.1526 22.3698 47.2647 22.6921 46.8632C22.8096 46.967 22.9015 47.0183 22.8607 46.9117C22.8665 46.8109 22.8736 46.7103 22.8796 46.6095C22.899 46.5819 22.9135 46.5644 22.9341 46.5342C23.0824 46.3164 23.014 46.0227 23.0549 45.7672C23.0567 45.7556 23.1083 45.4402 23.1507 45.1792C23.1497 45.221 23.149 45.2629 23.1481 45.3047C23.1471 45.3458 23.1456 45.3868 23.1449 45.4279C23.1204 45.5522 23.0178 45.6924 23.1167 45.7946C23.1211 45.7991 23.1248 45.8024 23.1291 45.8068C23.1077 45.9618 23.0636 46.1617 23.3809 46.0321C23.7057 46.2683 23.7319 46.0078 23.7414 45.8309C23.8177 45.7553 23.7434 45.6042 23.7556 45.4954C23.7946 45.1476 23.8475 44.784 23.8954 44.438C23.908 44.3527 23.9207 44.2675 23.9331 44.1822L24 44.2L25.3802 38.9994C25.4248 38.9679 25.4764 38.9236 25.5332 38.8692C25.6174 38.8964 25.6668 38.8796 25.6225 38.7786C25.6455 38.7541 25.6678 38.7315 25.6927 38.7034C25.8624 38.5124 25.7801 38.2183 25.8203 37.9751C25.8666 37.6952 25.9087 37.4144 25.9526 37.1339C26.1371 37.1838 26.3474 37.1862 26.5146 37.129C26.5186 37.1295 26.5208 37.1302 26.5248 37.1307C26.5409 37.1326 26.5475 37.1268 26.5489 37.1166C26.5529 37.115 26.5573 37.1139 26.5612 37.1123C26.6134 37.0897 26.6224 37.0398 26.6223 36.9837C26.7408 36.9744 26.851 36.9485 26.9257 36.8839C26.9834 36.834 27.1122 35.7556 27.1129 35.7497C27.1461 35.4323 27.1727 35.1944 27.1933 34.9071C27.2156 34.8577 27.2194 34.7998 27.2148 34.7381C27.231 34.6902 27.253 34.6386 27.2062 34.6212C27.2046 34.6206 27.2036 34.6203 27.2021 34.6197C27.1964 34.5689 27.1924 34.519 27.1974 34.4731C27.2344 34.1302 27.2694 33.7867 27.3065 33.4438C27.4898 31.7463 27.42 32.3678 27.6464 30.5687C27.6566 30.4923 27.668 30.4162 27.6783 30.3398L28.2513 28.181C28.2183 28.6722 28.1831 29.2064 28.177 29.3751C28.1711 29.5403 28.1786 29.707 28.1793 29.8729C28.1967 29.9319 28.161 30.0559 28.2314 30.05C28.4604 30.0306 28.615 29.9977 28.723 29.9493C28.8079 29.9872 28.8534 29.9912 28.7853 29.9254C28.7853 29.9227 28.7853 29.9198 28.7853 29.917C29.0145 29.7744 28.9574 29.5216 29.0332 29.1087C29.0877 28.8121 29.138 28.5148 29.1892 28.2175C29.4794 26.5315 29.2082 28.066 29.471 26.5917C29.5587 26.1475 29.5711 26.051 29.6716 25.6478C29.6957 25.5511 29.7301 25.4569 29.7497 25.3591C29.8233 24.9932 29.8448 24.6149 29.8763 24.2417C29.9086 23.8863 29.9087 23.527 29.8913 23.1667C29.8851 23.0376 29.8698 22.9078 29.8707 22.7792C29.8726 22.5118 29.887 22.2458 29.8971 21.9794L30.4826 19.7731C30.5045 19.7645 30.5262 19.7554 30.548 19.7463C30.6016 19.7809 30.6574 19.812 30.7196 19.8327C30.7787 19.8523 30.7224 19.7565 30.6986 19.6879C30.7298 19.6762 30.7607 19.6633 30.7926 19.6541C30.9682 18.8146 31.0875 17.9631 31.2363 17.118C31.2581 17.1318 31.282 17.1409 31.311 17.1393C31.7021 17.1189 31.7507 16.7016 31.8104 16.484C31.8864 16.2071 31.9643 15.9201 32.0194 15.6383C32.0547 15.4582 32.0802 15.2761 32.1106 15.095C32.2141 14.4264 32.2364 13.7458 32.2626 13.0661L32.552 11.9757L32.3579 11.9242C32.402 11.9125 32.3669 11.8417 32.3613 11.8004C32.3589 11.7828 32.3587 11.7551 32.3578 11.7296C32.3652 11.5513 32.373 11.3731 32.3775 11.1947C32.4345 10.5395 32.5085 9.88718 32.5643 9.23185C32.5644 9.23074 32.6357 8.373 32.6262 8.2886C32.6181 8.21611 32.567 8.14755 32.5374 8.07705C32.3764 8.15289 32.176 8.19373 32.0215 8.27524C32.0213 8.27713 32.021 8.2828 32.0209 8.28466C32.0186 8.28288 32.0154 8.28164 32.013 8.27986C32.0131 8.27949 32.0131 8.27975 32.0132 8.27914C31.9918 8.29073 31.9721 8.30378 31.9528 8.31726C31.9531 8.19936 31.956 8.07499 31.8478 8.00865C31.7154 7.92748 31.5453 7.9756 31.3829 7.99796C31.3953 7.93123 31.399 7.91301 31.4287 7.75347C31.4416 7.68418 31.454 7.62539 31.466 7.56507C31.4812 7.53973 31.4925 7.51585 31.4788 7.50116C31.4927 7.4184 31.499 7.33474 31.4882 7.23964C31.5505 7.24138 31.6082 7.23323 31.6558 7.20308C31.8147 7.10232 31.7292 6.86678 31.7628 6.69788C31.9122 5.94734 32.0343 5.19081 32.1494 4.43329C32.1464 4.36367 32.2201 4.25383 32.1402 4.22436C32.0462 4.18967 31.9386 4.1608 31.8327 4.14715C31.8459 4.0404 31.8601 3.93379 31.87 3.82652C31.8767 3.75366 31.9657 3.62361 31.8769 3.60615C31.7373 3.57872 31.6024 3.60733 31.4678 3.64033C31.4067 3.59912 31.3433 3.562 31.271 3.54031C31.2108 3.52242 31.2492 3.61684 31.2617 3.68521C31.2434 3.68859 31.2252 3.69363 31.2068 3.6961C31.0756 4.22236 30.9562 4.75164 30.8391 5.28138C30.8067 5.25799 30.7751 5.2344 30.7473 5.20902C30.7226 5.24889 30.695 5.28755 30.6685 5.32668C30.6912 5.1915 30.7134 5.05622 30.7301 4.91993C30.7441 4.80551 30.8767 4.5757 30.7357 4.5716C30.5548 4.56635 30.4104 4.59342 30.2921 4.64223C30.2654 4.61804 30.2356 4.5939 30.2041 4.56967C30.234 4.28944 30.234 3.95134 29.9131 4.49206C29.8782 4.38079 29.8466 4.30302 29.818 4.25419C29.8437 4.20261 29.8463 4.15945 29.7865 4.1379C29.756 4.12713 29.73 4.12176 29.7026 4.11487C29.6001 4.01626 29.4432 3.95364 29.1993 3.961C29.0274 3.96618 29.1044 4.22772 29.0701 4.36475C28.9722 4.75606 28.8907 5.15077 28.8154 5.54694C28.7942 5.51944 28.7751 5.49312 28.7518 5.46435C28.6821 5.37867 28.7481 5.6602 28.7345 5.75625C28.7243 5.82822 28.712 5.89976 28.7012 5.9716C28.6669 6.01321 28.6355 6.05602 28.6087 6.10056C28.5149 5.99895 28.3643 5.98147 28.1244 6.1359C28.0532 6.08056 27.9414 6.0589 27.7617 6.11092C27.5825 6.1628 27.5918 6.39052 27.5398 6.54244C27.4733 6.7369 27.4523 6.94383 27.4083 7.14449C27.3893 7.23096 27.3703 7.31747 27.3513 7.40394C27.3495 7.40192 27.3473 7.40016 27.3455 7.39799C27.3493 7.36241 27.3514 7.34028 27.3672 7.2377C27.3442 7.24089 27.319 7.24056 27.2949 7.24202C27.304 7.08716 27.3142 6.93247 27.3244 6.77777C27.3415 6.58728 27.3581 6.39676 27.3752 6.20626C27.408 5.839 27.4872 4.94022 27.5279 4.5277C27.5371 4.43479 27.6179 4.32799 27.6 4.241C27.6339 4.17536 27.6408 4.1209 27.5804 4.09561C27.4378 4.036 27.257 3.99501 27.1056 4.01362C27.0613 4.01019 27.0171 4.00751 26.9756 4.00858C26.9294 4.00977 26.9183 4.04104 26.9264 4.0885C26.8679 4.16955 26.935 4.3208 26.9243 4.42784C26.9204 4.46687 26.9134 4.55059 26.9086 4.60088C26.9077 4.60048 26.9071 4.60042 26.9061 4.60001C26.8303 5.23392 26.7753 5.87109 26.731 6.50976C26.6666 6.48159 26.6007 6.46237 26.5312 6.46373C26.405 6.46619 26.4369 6.65016 26.4039 6.74831C26.3323 6.9613 26.2739 7.17821 26.2182 7.39571C26.1949 7.48685 26.1738 7.57868 26.1513 7.67006C26.1246 7.6618 26.0969 7.65638 26.0682 7.65359C25.9467 7.64215 25.9961 7.83812 25.969 7.93309C25.9461 8.01316 25.926 8.09394 25.9052 8.17458C25.8833 8.18843 25.8623 8.20074 25.8387 8.21748C25.7949 8.24865 25.7646 8.28746 25.7398 8.32962C25.748 8.22509 25.756 8.12053 25.7605 8.01552C25.7722 7.74005 26.0065 7.01028 25.1442 7.27595C25.017 7.31514 25.0776 7.4961 25.0528 7.60829C25.0495 7.62325 25.0463 7.64121 25.043 7.65646C25.0246 7.68025 25.0116 7.71256 25.0005 7.74814C24.9145 7.77172 24.9512 7.89307 24.9398 7.97612C24.8393 8.3186 24.7301 8.65848 24.6106 8.9952C24.3594 9.70454 24.1026 10.4125 23.8949 11.1352C23.5091 12.4797 23.1079 13.82 22.7518 15.1726C22.3832 16.6481 22.0461 18.1314 21.7422 19.6223C21.6326 19.6012 21.6011 19.7641 21.5664 19.8502C21.4812 20.0621 21.4403 20.2881 21.3902 20.5103C21.2651 21.0651 21.1752 21.6052 21.0845 22.1564C21.0506 22.1636 21.0275 22.2574 21.0137 22.2999C20.9708 22.4324 20.9574 22.5726 20.9303 22.7093C20.9294 22.714 20.8626 23.0502 20.802 23.3741C20.7989 23.3744 20.7958 23.3751 20.7926 23.3758C20.7642 23.3698 20.7365 23.3632 20.7102 23.3547C20.7089 23.3716 20.7071 23.3884 20.7057 23.4053C20.7034 23.4066 20.7004 23.4073 20.6981 23.4088C20.5512 23.5064 20.6575 23.7313 20.636 23.8923C20.5842 24.2791 20.5324 24.666 20.4794 25.0528C20.4505 25.0466 20.4211 25.0431 20.3907 25.0445C20.2501 25.051 20.3517 25.2732 20.3366 25.3884C20.3364 25.3895 20.301 25.6979 20.267 26.0001C20.2653 26.0058 20.2638 26.0117 20.2621 26.0175C20.0483 26.7463 19.8265 27.4729 19.5974 28.1972C19.4162 28.7622 19.2333 29.3266 19.0472 29.8901C19.0429 29.896 19.0391 29.902 19.0348 29.9079C18.9794 29.9839 18.8187 30.041 18.8594 30.1308C18.7687 30.23 18.6846 30.3334 18.875 30.3999C18.7383 30.8085 18.6022 31.2172 18.4607 31.6244C18.0426 32.8283 18.0037 32.9115 17.5781 34.0946C17.4296 34.5076 17.2826 34.9211 17.1348 35.3343C16.8867 36.0642 16.7142 36.529 16.5161 37.2434C16.4917 37.3315 16.4261 37.4224 16.401 37.5119L16.401 37.5122ZM32.0132 8.2795C32.0159 8.27791 32.0188 8.27674 32.0215 8.27534C32.0269 8.17583 32.0252 8.17384 32.0132 8.2795ZM18.6714 32.8699C18.7711 32.592 18.8669 32.3239 19.0445 31.8123C19.0767 31.7197 19.1069 31.6265 19.1388 31.5338C19.201 31.5509 19.2661 31.5643 19.3307 31.5784C19.3624 31.5996 19.3968 31.616 19.4337 31.6284C19.4271 31.6538 19.4204 31.6792 19.4137 31.7046C19.3743 31.7118 19.326 31.724 19.2791 31.7354C19.2621 31.7304 19.245 31.7235 19.2281 31.7194C19.1902 31.7103 19.1749 31.7299 19.1714 31.7649C19.0632 31.8147 19.0853 31.9777 19.0378 32.0797C18.5139 33.2044 18.7705 32.6604 18.6714 32.8699V32.8699ZM20.4083 44.1625C20.45 44.1738 20.492 44.1847 20.5345 44.1922C20.4908 44.527 20.4468 44.8619 20.4035 45.1968C20.3908 45.2374 20.3784 45.278 20.3657 45.3186C20.3697 45.0103 20.371 44.7019 20.3722 44.3935C20.376 44.371 20.4032 44.2041 20.4083 44.1625L20.4083 44.1625ZM21.3624 44.7162C21.4158 44.7106 21.4682 44.702 21.5197 44.6912C21.5018 44.7603 21.4922 44.8294 21.499 44.8982C21.4486 45.1481 21.4162 45.3015 21.3513 45.6303C21.3495 45.6303 21.3478 45.6301 21.3459 45.6301C21.3424 45.5434 21.3364 45.4561 21.3394 45.3707C21.3448 45.2146 21.3558 44.96 21.3624 44.7162V44.7162ZM29.1078 24.9537L29.2503 24.4167C29.2302 24.6799 29.2088 24.9439 29.1571 25.2001C29.1366 25.3023 29.101 25.4008 29.0758 25.5019C29.064 25.5493 29.0607 25.5692 29.051 25.6094C29.0687 25.3906 29.0892 25.1723 29.1078 24.9537L29.1078 24.9537ZM26.5427 35.1962C26.5462 35.2027 26.5507 35.2081 26.5552 35.2136C26.5485 35.2786 26.5408 35.3536 26.5334 35.4229C26.5365 35.3473 26.5395 35.2717 26.5427 35.1962L26.5427 35.1962ZM31.6654 16.7455C31.6767 16.7887 31.6728 16.8499 31.6451 16.939C31.6508 16.8744 31.6592 16.81 31.6654 16.7455Z" fill="#E83434"/>
<path d="M31.7697 37.2091C31.8175 37.2378 31.8689 37.2522 31.9272 37.2352C31.9381 37.232 31.9485 37.2264 31.9592 37.2222C31.9643 37.2279 31.9692 37.2301 31.9738 37.2209C31.9747 37.2191 31.9759 37.2171 31.9768 37.2153C32.1428 37.1407 32.2824 36.95 32.3876 36.7798C32.4386 36.6972 32.2895 36.6579 32.1426 36.6219C32.0943 36.5557 31.9862 36.5448 31.8979 36.5144C31.8977 36.4907 31.9248 36.4622 31.9947 36.426C31.3124 35.8811 30.6319 35.3334 29.9607 34.7733C30.6975 35.2101 31.4387 35.6397 32.1869 36.0569C32.2578 36.1452 32.3296 36.2248 32.4186 36.1632C32.486 36.1166 32.5127 36.0405 32.5249 35.954L34.2391 36.9499C34.655 37.2568 35.0649 37.5729 35.4921 37.8629C35.9458 38.1755 36.4005 38.4882 36.8752 38.767C37.1199 38.9092 37.3692 38.5856 37.2925 38.3655C37.6835 38.5443 38.0745 38.7231 38.4653 38.9024C38.4692 38.9354 38.4728 38.968 38.48 39.0055C38.5081 39.1529 38.7083 39.1466 38.8285 39.2063C39.1043 39.3431 39.8631 39.6679 40.1456 39.7905C40.18 39.7752 40.2153 39.7626 40.2503 39.7491C40.3297 39.7896 40.4092 39.8301 40.4874 39.873C40.5001 39.88 40.5119 39.9291 40.5097 39.9128C40.4982 39.8299 40.4846 39.748 40.471 39.6659C40.6216 39.611 40.7706 39.5515 40.9064 39.4525C40.9633 39.4111 40.8263 39.361 40.7752 39.3317C40.6448 39.2569 40.5102 39.1893 40.3749 39.1235C40.3885 39.0481 40.3908 38.9829 40.3848 38.9248C40.4089 38.8907 40.4334 38.8543 40.4583 38.8128C40.4949 38.752 40.4349 38.7452 40.3358 38.7597C40.2055 38.5216 39.8571 38.4689 39.5723 38.3294C39.2329 38.1633 38.8922 38 38.5518 37.836C38.5408 37.7979 38.5285 37.7609 38.5156 37.7319C38.4613 37.6094 38.3043 37.5962 38.1969 37.5312C38.0589 37.4478 37.9191 37.367 37.7791 37.2866C37.9681 37.3668 38.1571 37.4472 38.3482 37.5224C38.5156 37.5935 38.683 37.6646 38.8504 37.7358C38.9728 37.8057 39.0989 37.8638 39.2323 37.8978C39.2423 37.902 39.2523 37.9063 39.2623 37.9105C39.4101 37.9724 39.5426 38.1207 39.6954 38.1569C39.7574 38.1894 39.8218 38.2012 39.8918 38.1648C39.8961 38.1626 39.8998 38.1585 39.9041 38.1559C39.9294 38.1997 40.0003 38.2056 40.0713 38.2109C40.1203 38.241 40.1898 38.2471 40.2593 38.2531C40.3045 38.2689 40.3368 38.2798 40.3734 38.2925C40.3893 38.2989 40.4157 38.3101 40.4308 38.3162C40.8246 38.4736 40.9983 38.6398 41.2197 38.5872C41.2729 38.6085 41.3263 38.6295 41.3795 38.6509C41.4129 38.6758 41.4648 38.7379 41.466 38.6981C41.4661 38.6941 41.4664 38.6897 41.4665 38.6856C41.5183 38.7064 41.5702 38.7269 41.6219 38.7477C41.6302 38.7295 41.6388 38.718 41.6472 38.703C41.7648 38.7594 41.9002 38.826 41.9937 38.87C42.0954 38.9178 42.1876 39.0266 42.2903 39.0714C42.3665 39.1417 42.4416 39.1713 42.5143 39.1056C42.5923 39.0351 42.6577 38.9272 42.6954 38.8157C42.7397 38.728 42.7682 38.6331 42.7703 38.55C42.7724 38.4695 42.7167 38.4369 42.6339 38.427C42.5353 38.3684 42.3789 38.3721 42.2708 38.323C42.2796 38.244 42.2782 38.1661 42.2653 38.1068C42.2346 37.9652 42.032 37.9914 41.9154 37.9337C41.6924 37.8334 41.4147 37.7086 41.144 37.5889C40.8712 37.4124 40.5891 37.251 40.3108 37.0835C40.0464 36.9244 39.7806 36.7678 39.5155 36.6101C39.8528 36.7195 40.1926 36.8228 40.5332 36.924C41.8749 37.5444 43.2152 38.168 44.554 38.7944C44.7893 38.9068 45.0101 39.0511 45.2601 39.1317C45.33 39.1542 45.4057 39.1794 45.4801 39.203C45.5195 39.26 45.5586 39.3058 45.5978 39.2572C45.6024 39.2515 45.6048 39.2451 45.6087 39.2392C45.8729 39.3028 46.0846 39.2672 45.9572 38.7622C45.933 38.6665 45.8184 38.6483 45.7483 38.5924C45.4447 38.3502 45.0758 38.0639 44.778 37.8314C44.4838 37.6075 44.2314 37.4141 43.9764 37.2217C44.0856 37.2592 44.1655 37.2864 44.2903 37.3292C44.7781 37.4851 45.2486 37.6816 45.7325 37.8464C45.8488 37.8861 45.9559 37.9796 46.086 37.9532C46.2194 37.926 46.4897 37.8322 46.4524 37.7C46.4259 37.6061 46.3687 37.5179 46.2935 37.4345C46.3025 37.4205 46.309 37.4051 46.3087 37.386C46.3079 37.3097 46.2343 37.3005 46.1516 37.2994C45.7283 36.9538 45.005 36.7168 44.7625 36.6088C43.6761 36.1485 42.5867 35.6945 41.4977 35.2399C41.5404 35.2351 41.5832 35.2288 41.6255 35.2261C41.629 35.1345 41.6462 35.0385 41.653 34.9458C41.7353 34.9866 41.8357 35.0366 41.8953 35.0661C41.8584 35.1209 41.8092 35.1845 41.7313 35.2684C42.0191 35.3877 42.3064 35.5078 42.5947 35.6262C42.9837 35.7859 43.331 36.0042 43.7419 36.0164C43.8191 36.0532 43.8986 36.0851 43.9818 36.1087C44.0275 36.1216 43.9741 36.0664 43.9237 36.0073C44.0676 35.9897 44.2199 35.9463 44.3853 35.8643C44.4857 35.8145 44.3493 35.632 44.274 35.5697C44.0867 35.4145 43.8624 35.3172 43.6302 35.2328C43.6439 35.1892 43.6401 35.1202 43.6089 35.014C44.0693 34.8252 43.7443 34.7377 43.606 34.6975C43.5502 34.6683 43.4953 34.6372 43.44 34.6072C43.3894 34.5123 43.2843 34.4835 43.1744 34.4609C42.9306 34.3228 42.689 34.1808 42.4454 34.0424C42.6236 34.0644 42.751 34.0236 42.4487 33.6068C42.5798 33.5209 42.6536 33.4457 42.54 33.457C42.4443 33.4248 42.3491 33.3914 42.2535 33.359C42.232 33.3331 42.2189 33.3144 42.1951 33.2866C42.0242 33.0861 41.7228 33.0747 41.4872 32.9678C41.4765 32.963 41.1858 32.83 40.9452 32.7203C40.9853 32.7323 41.0255 32.7441 41.0657 32.7559C41.105 32.7678 41.1442 32.78 41.1837 32.7915C41.2971 32.8479 41.4053 32.9838 41.5299 32.9154C41.5354 32.9123 41.5396 32.9097 41.545 32.9067C41.6888 32.9682 41.87 33.0634 41.8287 32.7232C42.1422 32.4722 41.8979 32.3782 41.7297 32.3224C41.6769 32.2288 41.5115 32.2607 41.4098 32.2202C41.0846 32.0908 40.7478 31.944 40.4268 31.8065C40.3478 31.7719 40.269 31.7371 40.1899 31.7027L40.2247 31.6428L35.5722 28.94C35.5536 28.8887 35.5246 28.8272 35.487 28.758C35.5355 28.684 35.5323 28.6319 35.4231 28.648C35.4056 28.6193 35.3897 28.5919 35.3692 28.5604C35.2297 28.3465 34.9243 28.3482 34.7003 28.2453C34.4425 28.1268 34.1827 28.0121 33.9238 27.8959C34.0206 27.731 34.0783 27.5288 34.0672 27.3524C34.0687 27.3487 34.07 27.3468 34.0716 27.343C34.0777 27.3281 34.0738 27.3201 34.0643 27.3161C34.0638 27.3118 34.064 27.3073 34.0634 27.3031C34.0554 27.2468 34.0096 27.2249 33.9555 27.2102C33.9778 27.0935 33.9818 26.9804 33.9392 26.8912C33.9063 26.8225 32.9 26.4138 32.8945 26.4115C32.5971 26.2958 32.3747 26.2074 32.1029 26.1118C32.0613 26.0772 32.0064 26.0584 31.9457 26.0465C31.9037 26.0182 31.8598 25.9835 31.8306 26.024C31.8296 26.0253 31.829 26.0262 31.8281 26.0275C31.7776 26.0196 31.7284 26.0103 31.6854 25.9934C31.3644 25.8672 31.0424 25.7429 30.7213 25.6167C29.1323 24.9922 29.7134 25.2234 28.0377 24.5306C27.9667 24.5006 27.8962 24.4696 27.8253 24.4394L25.8941 23.3174C26.3591 23.4788 26.8652 23.6536 27.0263 23.7039C27.1841 23.7533 27.3468 23.79 27.507 23.833C27.5686 23.8319 27.6788 23.899 27.6916 23.8295C27.7333 23.6035 27.7424 23.4457 27.7241 23.3288C27.7831 23.2568 27.799 23.214 27.7175 23.2623C27.7149 23.2617 27.7121 23.2609 27.7094 23.2602C27.6323 23.0015 27.3734 22.9898 26.9952 22.8078C26.7234 22.677 26.4499 22.5501 26.1766 22.4223C24.6268 21.6977 26.0355 22.364 24.6827 21.7218C24.2773 21.5199 24.1875 21.4826 23.8251 21.2793C23.7382 21.2305 23.6564 21.1726 23.5673 21.1278C23.2337 20.9604 22.8744 20.8399 22.5227 20.7111C22.1885 20.5861 21.842 20.4913 21.4898 20.413C21.3636 20.385 21.2343 20.3655 21.1105 20.3307C20.8532 20.2583 20.6004 20.1743 20.346 20.0943L18.3723 18.9477C18.3697 18.9243 18.3667 18.9009 18.3637 18.8776C18.4111 18.8349 18.4559 18.7893 18.4922 18.7347C18.5267 18.6829 18.4195 18.712 18.347 18.7169C18.344 18.6837 18.3396 18.6505 18.3392 18.6173C17.5758 18.2265 16.7859 17.8868 16.0099 17.5204C16.029 17.503 16.0441 17.4824 16.0502 17.454C16.1336 17.0714 15.7439 16.9145 15.5498 16.7995C15.3027 16.6532 15.0464 16.5023 14.7892 16.3748C14.6248 16.2933 14.4558 16.2207 14.2892 16.1436C13.6715 15.8674 13.0209 15.6664 12.3721 15.4619L11.3966 14.8952L11.2958 15.0688C11.2962 15.0232 11.2185 15.0384 11.1773 15.0329C11.1597 15.0306 11.1329 15.0234 11.1081 15.0176C10.938 14.9635 10.7683 14.9089 10.5973 14.8575C9.98035 14.6298 9.37061 14.3863 8.7532 14.1597C8.75218 14.1592 7.94359 13.8643 7.85968 13.8512C7.78761 13.8399 7.70799 13.8711 7.63218 13.8811C7.66288 14.0564 7.64944 14.2604 7.6873 14.431C7.68909 14.4316 7.69448 14.4334 7.69624 14.434C7.6939 14.4358 7.69186 14.4386 7.68954 14.4404C7.68918 14.4402 7.68946 14.4402 7.68889 14.44C7.69443 14.4637 7.7018 14.4862 7.70972 14.5083C7.59608 14.4769 7.47688 14.4413 7.38434 14.5282C7.27113 14.6346 7.27269 14.8113 7.25143 14.9739C7.19032 14.9443 7.17373 14.9359 7.02767 14.8652C6.96423 14.8345 6.9108 14.807 6.85579 14.7795C6.83534 14.7582 6.81528 14.741 6.7975 14.7503C6.72133 14.7151 6.6423 14.687 6.54772 14.6723C6.56584 14.6126 6.5732 14.5548 6.55666 14.501C6.50138 14.3211 6.25164 14.3414 6.09758 14.2645C5.41298 13.9225 4.71545 13.6052 4.01511 13.2943C3.94715 13.2789 3.86064 13.1789 3.81114 13.2482C3.75291 13.3296 3.69668 13.4258 3.65558 13.5244C3.55609 13.4835 3.45699 13.4417 3.35612 13.4039C3.28762 13.3782 3.18565 13.258 3.14539 13.3391C3.0821 13.4665 3.07412 13.6042 3.07045 13.7428C3.01461 13.7908 2.96208 13.8421 2.92207 13.9062C2.88895 13.9595 2.99016 13.9474 3.05941 13.9533C3.05784 13.9719 3.0579 13.9908 3.05543 14.0092C3.52845 14.2745 4.00751 14.5293 4.48762 14.7819C4.45651 14.807 4.42541 14.8313 4.3936 14.8514C4.42553 14.8858 4.45557 14.9226 4.48631 14.9585C4.36191 14.9009 4.23726 14.8438 4.1102 14.7918C4.00353 14.7481 3.81683 14.5596 3.7757 14.6944C3.72291 14.8676 3.71094 15.0141 3.72684 15.141C3.69646 15.1604 3.66531 15.1828 3.63362 15.2068C3.37121 15.104 3.04508 15.0148 3.48201 15.467C3.36548 15.4713 3.28214 15.4813 3.22751 15.4959C3.18452 15.4576 3.14358 15.4437 3.107 15.4958C3.08859 15.5223 3.07654 15.546 3.06266 15.5706C2.94052 15.6434 2.83875 15.7782 2.78152 16.0155C2.74116 16.1827 3.01376 16.1774 3.1369 16.2466C3.48852 16.4442 3.84779 16.6269 4.21005 16.8041C4.17795 16.8172 4.14753 16.8287 4.11361 16.8436C4.01259 16.8882 4.30157 16.8988 4.39063 16.9372C4.45736 16.9661 4.52313 16.9968 4.58956 17.0262C4.62067 17.0702 4.65368 17.1118 4.68957 17.1494C4.56682 17.2131 4.51025 17.3537 4.59593 17.6259C4.52378 17.68 4.47339 17.7821 4.47618 17.9692C4.47896 18.1557 4.70107 18.2068 4.83391 18.297C5.00395 18.4124 5.198 18.4873 5.37995 18.5826C5.45837 18.6237 5.5368 18.6649 5.6152 18.706C5.61278 18.7072 5.61049 18.7089 5.60792 18.7101C5.57461 18.697 5.55382 18.6891 5.45903 18.6469C5.45605 18.6699 5.44908 18.6941 5.44413 18.7177C5.29716 18.6681 5.15063 18.6175 5.0041 18.5668C4.82486 18.5001 4.64547 18.4338 4.46622 18.3671C4.12061 18.2386 3.27453 17.9252 2.88736 17.7771C2.80016 17.7438 2.71846 17.6376 2.62983 17.632C2.57544 17.582 2.52474 17.5609 2.4844 17.6126C2.38929 17.7344 2.30208 17.898 2.28011 18.0489C2.26511 18.0907 2.25087 18.1327 2.24095 18.173C2.22992 18.2179 2.25715 18.2369 2.30506 18.2416C2.36783 18.3193 2.53142 18.2945 2.63184 18.333C2.66846 18.3471 2.74738 18.3759 2.79462 18.3938C2.79398 18.3946 2.79377 18.3952 2.79313 18.396C3.3846 18.6363 3.98471 18.8574 4.58907 19.0686C4.54493 19.1232 4.50901 19.1817 4.492 19.2491C4.46109 19.3715 4.64694 19.3893 4.73292 19.447C4.9195 19.5722 5.11331 19.6858 5.30842 19.7968C5.39019 19.8434 5.47321 19.8879 5.55543 19.9337C5.54041 19.9573 5.52788 19.9826 5.51762 20.0095C5.47454 20.1237 5.67661 20.1277 5.76106 20.179C5.83227 20.2221 5.90487 20.2629 5.97717 20.3042C5.98476 20.329 5.99109 20.3525 6.00104 20.3796C6.01954 20.4301 6.04897 20.4696 6.08311 20.5046C5.98442 20.4692 5.88569 20.4338 5.78558 20.4018C5.52294 20.3179 4.88082 19.8994 4.90966 20.8013C4.91392 20.9343 5.10447 20.9235 5.20613 20.9771C5.21969 20.9842 5.23617 20.992 5.25 20.9992C5.2681 21.0233 5.29585 21.0443 5.32725 21.0644C5.3273 21.1536 5.45403 21.1502 5.53114 21.1831C5.835 21.3703 6.13403 21.5653 6.42732 21.7694C7.0453 22.1987 7.66049 22.6332 8.30283 23.0241C9.49792 23.7508 10.685 24.4913 11.8958 25.1915C13.2219 25.9362 14.5637 26.6526 15.9217 27.3389C15.8725 27.439 16.0213 27.5124 16.0952 27.5686C16.2771 27.7066 16.4843 27.8057 16.6855 27.9126C17.1876 28.1796 17.6849 28.4088 18.1927 28.6416C18.1906 28.6762 18.275 28.7233 18.3124 28.7478C18.4289 28.824 18.5606 28.874 18.6853 28.9361C18.6896 28.9382 18.9963 29.0914 19.2927 29.2352C19.2922 29.2384 19.2921 29.2415 19.2919 29.2447C19.2786 29.2706 19.2649 29.2956 19.2498 29.3187C19.2657 29.3244 19.2815 29.3305 19.2974 29.3363C19.298 29.339 19.298 29.342 19.2988 29.3446C19.3542 29.5121 19.5991 29.4688 19.7488 29.5321C20.1082 29.684 20.4678 29.836 20.8269 29.9891C20.8134 30.0154 20.8022 30.0429 20.7956 30.0726C20.7647 30.2099 21.0058 30.1705 21.113 30.2154C21.114 30.2159 21.4021 30.3314 21.6846 30.4439C21.6898 30.447 21.695 30.45 21.7002 30.4532C22.3467 30.8517 22.9891 31.2571 23.6273 31.6692C24.1247 31.993 24.6208 32.3183 25.1153 32.6464C25.1198 32.652 25.1246 32.6574 25.1292 32.6631C25.1878 32.7365 25.2005 32.9066 25.2979 32.891C25.3697 33.0047 25.4473 33.1131 25.5616 32.947C25.9196 33.1866 26.278 33.4257 26.6335 33.6695C27.6845 34.3903 27.7545 34.4498 28.7835 35.1723C29.1427 35.4245 29.5028 35.6753 29.8624 35.9268C30.501 36.3587 30.9039 36.6476 31.5408 37.0271C31.6192 37.0739 31.6896 37.1611 31.7694 37.209L31.7697 37.2091ZM7.68922 14.4401C7.68841 14.4371 7.68804 14.434 7.6874 14.431C7.59285 14.3995 7.59047 14.4007 7.68922 14.4401ZM27.8904 33.7947C27.6487 33.6253 27.4153 33.4622 26.9687 33.1559C26.8879 33.1004 26.8059 33.0468 26.725 32.9916C26.7579 32.9361 26.7879 32.8768 26.8186 32.8182C26.8474 32.7932 26.8722 32.7643 26.894 32.732C26.9167 32.7451 26.9394 32.7582 26.9622 32.7714C26.9588 32.8113 26.9577 32.8611 26.9564 32.9093C26.9471 32.9245 26.9359 32.9391 26.9275 32.9543C26.9087 32.9885 26.9236 33.0084 26.9564 33.021C26.9759 33.1385 27.139 33.1602 27.2248 33.2329C28.1716 34.0348 27.7145 33.6439 27.8904 33.7947V33.7947ZM39.2413 35.0975C39.2633 35.0603 39.2848 35.0226 39.3033 34.9836C39.6147 35.1141 39.9261 35.2448 40.2377 35.3749C40.2735 35.3978 40.3095 35.4205 40.3452 35.4435C40.0489 35.3584 39.7518 35.2758 39.4546 35.1932C39.434 35.1837 39.2801 35.1134 39.2413 35.0975L39.2413 35.0975ZM40.027 34.3232C40.0357 34.2702 40.0413 34.2174 40.0444 34.1648C40.1064 34.2004 40.1705 34.2279 40.2386 34.2394C40.4664 34.354 40.6058 34.4257 40.9059 34.575C40.9054 34.5767 40.9047 34.5783 40.9042 34.5801C40.8196 34.5606 40.7339 34.5434 40.6523 34.518C40.5032 34.4716 40.2604 34.3939 40.027 34.3232V34.3232ZM23.0068 21.6401L22.5264 21.361C22.775 21.4498 23.024 21.5401 23.2576 21.6575C23.3507 21.7043 23.4363 21.7646 23.5272 21.8155C23.5699 21.8394 23.5882 21.8479 23.6244 21.8678C23.418 21.793 23.2128 21.7157 23.0068 21.6401L23.0068 21.6401ZM32.2103 26.8156C32.2174 26.814 32.2238 26.811 32.2304 26.8082C32.2913 26.8317 32.3616 26.859 32.4265 26.8844C32.3544 26.8614 32.2823 26.8387 32.2103 26.8156L32.2103 26.8156ZM15.7637 17.0083C15.8084 17.0088 15.8665 17.0287 15.945 17.079C15.8842 17.0564 15.8244 17.0313 15.7637 17.0083Z" fill="#E83434"/>
<path d="M71.3929 60.5421C71.4376 60.5429 71.4789 60.5335 71.5126 60.5018C71.5189 60.4959 71.5239 60.4886 71.5297 60.4821C71.5355 60.4839 71.5397 60.4835 71.5393 60.4761L71.5391 60.4714C71.6246 60.3649 71.6456 60.1948 71.6508 60.05C71.6533 59.9798 71.5342 60.0087 71.4179 60.0389C71.358 60.0147 71.2787 60.0467 71.2053 60.0593C71.1957 60.0445 71.2032 60.0169 71.2373 59.9689C70.5469 59.8719 69.8566 59.7724 69.1678 59.6618C69.8531 59.6713 70.5384 59.6747 71.2236 59.6678C71.308 59.6978 71.3895 59.7221 71.4268 59.6513C71.455 59.5978 71.4432 59.5404 71.4172 59.4816L73.0032 59.4909C73.414 59.5343 73.8242 59.5855 74.2362 59.6141C74.6755 59.6474 75.1154 59.6804 75.5558 59.6849C75.7822 59.6862 75.8264 59.3932 75.6855 59.2824C76.028 59.2542 76.3705 59.2259 76.7131 59.1981C76.7289 59.2174 76.7444 59.2366 76.7643 59.2575C76.8425 59.3401 76.9789 59.2641 77.086 59.2584C77.3319 59.2452 77.9878 59.1764 78.2326 59.1518C78.2504 59.1299 78.2699 59.1093 78.2887 59.0882C78.36 59.0851 78.4313 59.082 78.5026 59.0807C78.5142 59.0805 78.542 59.1072 78.5339 59.0978C78.493 59.0498 78.4509 59.0032 78.4088 58.9565C78.4914 58.8679 78.5711 58.7769 78.6259 58.6658C78.6489 58.6193 78.5339 58.6371 78.4867 58.637C78.3665 58.6369 78.2462 58.6428 78.1261 58.6502C78.1055 58.5979 78.0811 58.5561 78.0539 58.5217C78.057 58.4916 78.0595 58.4599 78.0603 58.4249C78.0614 58.3735 78.0171 58.3908 77.9542 58.4356C77.7689 58.3328 77.5062 58.425 77.253 58.4398C76.9514 58.4574 76.65 58.4773 76.3485 58.4967C76.3257 58.4767 76.3024 58.4579 76.2819 58.4443C76.1955 58.3868 76.0813 58.435 75.9809 58.4328C75.8519 58.43 75.7227 58.4294 75.5935 58.4293C75.7566 58.4117 75.9198 58.3943 76.0824 58.3728C76.2268 58.3573 76.3713 58.3417 76.5157 58.3263C76.6285 58.3262 76.7391 58.3174 76.8453 58.2908C76.8539 58.2898 76.8625 58.2889 76.8711 58.2879C76.9983 58.2737 77.1493 58.3193 77.2698 58.287C77.3257 58.2852 77.3751 58.2694 77.4092 58.2214C77.4113 58.2184 77.4122 58.2145 77.4142 58.2113C77.4491 58.2298 77.5007 58.208 77.5521 58.1858C77.5981 58.187 77.6487 58.1659 77.6994 58.1447C77.737 58.1383 77.7637 58.1336 77.7942 58.1284C77.8078 58.1267 77.8306 58.1242 77.8435 58.1226C78.1794 58.08 78.3661 58.1219 78.4988 58.0092C78.5442 58.0035 78.5895 57.9975 78.635 57.9918C78.6681 57.9954 78.7289 58.0158 78.7138 57.9903C78.7123 57.9878 78.7107 57.9849 78.7092 57.9823C78.7534 57.9768 78.7975 57.9709 78.8417 57.9654C78.8403 57.951 78.8416 57.9407 78.8415 57.9283C78.9455 57.9214 79.066 57.9146 79.1484 57.9086C79.238 57.902 79.3453 57.9372 79.4344 57.9285C79.5152 57.9452 79.5792 57.9368 79.6035 57.8694C79.6295 57.797 79.632 57.7057 79.6137 57.6221C79.6095 57.551 79.5915 57.4811 79.5599 57.4281C79.5292 57.3768 79.4777 57.3763 79.4162 57.3999C79.3245 57.3985 79.2175 57.4571 79.1229 57.4651C79.0975 57.4123 79.0655 57.3638 79.033 57.3312C78.9553 57.2532 78.8252 57.3426 78.7213 57.3482C78.5266 57.3654 78.2842 57.3869 78.0487 57.409C77.7892 57.3962 77.5291 57.3962 77.2693 57.391C77.0226 57.3861 76.7758 57.3833 76.529 57.3796C76.8066 57.327 77.0835 57.2697 77.3601 57.2108C78.5382 57.1181 79.7165 57.028 80.8948 56.9401C81.1029 56.9261 81.3135 56.9374 81.519 56.8982C81.5766 56.8872 81.6391 56.8758 81.7002 56.8639C81.7501 56.8855 81.7955 56.9003 81.8034 56.8556C81.8043 56.8504 81.8034 56.8455 81.8037 56.8403C82.0124 56.7853 82.1452 56.6868 81.8557 56.4152C81.8008 56.3637 81.714 56.3935 81.6431 56.3836C81.336 56.3406 80.966 56.2934 80.6668 56.2543C80.3735 56.2194 80.1214 56.1886 79.8679 56.1594C79.9586 56.1437 80.0249 56.1321 80.1285 56.1141C80.529 56.0367 80.9337 55.9909 81.3351 55.9205C81.4316 55.9035 81.5431 55.9238 81.6229 55.8604C81.7047 55.7954 81.8548 55.6391 81.7763 55.5695C81.7205 55.52 81.6457 55.4851 81.5603 55.4598C81.5611 55.4477 81.5594 55.4358 81.5516 55.4238C81.5206 55.3762 81.4659 55.3969 81.4081 55.4259C80.9767 55.3609 80.3805 55.4722 80.1692 55.4915C79.2322 55.5929 78.2955 55.6995 77.3589 55.8054C77.3865 55.787 77.4138 55.7677 77.442 55.7507C77.408 55.692 77.3817 55.6254 77.3495 55.5647C77.4229 55.5608 77.5125 55.5561 77.5656 55.5532C77.5617 55.6009 77.553 55.6586 77.5323 55.7393C77.7795 55.7107 78.0267 55.6829 78.2738 55.6536C78.6073 55.6141 78.9352 55.6264 79.2252 55.4863C79.2934 55.4816 79.3613 55.4731 79.4284 55.458C79.4653 55.4496 79.4062 55.4342 79.3477 55.4152C79.4406 55.3523 79.529 55.2703 79.6111 55.1592C79.661 55.0918 79.4936 55.0262 79.4166 55.0141C79.2248 54.9839 79.0305 55.0035 78.8357 55.0339C78.8278 55.0016 78.7977 54.9596 78.7338 54.904C78.9781 54.6198 78.7177 54.6817 78.6058 54.7062C78.5554 54.7079 78.505 54.7081 78.4546 54.7091C78.3818 54.6677 78.2973 54.6874 78.2121 54.7127C77.9879 54.7136 77.7638 54.7113 77.5396 54.7119C77.672 54.6616 77.7442 54.5902 77.3685 54.4369C77.4252 54.3358 77.4465 54.262 77.3721 54.3099C77.2929 54.3241 77.2136 54.3374 77.1343 54.3514C77.1091 54.3428 77.0926 54.3358 77.065 54.3269C76.8666 54.2623 76.6529 54.3636 76.4469 54.3812C76.4375 54.382 76.1829 54.403 75.9723 54.4205C76.0049 54.4136 76.0375 54.4066 76.07 54.3996C76.102 54.3929 76.1341 54.3865 76.1661 54.3795C76.2672 54.3741 76.3964 54.4207 76.4556 54.3328C76.4583 54.3289 76.4601 54.3258 76.4626 54.3219C76.5869 54.3089 76.7506 54.3035 76.5865 54.1046C76.704 53.8341 76.4971 53.8629 76.3582 53.8883C76.2843 53.8485 76.1822 53.928 76.0955 53.9391C75.8183 53.9748 75.5262 54.0036 75.2487 54.0327C75.1801 54.0393 75.1116 54.0458 75.043 54.0526L75.0433 54.0025L70.7389 53.9771C70.7056 53.9516 70.6609 53.9234 70.6073 53.8934C70.6115 53.8294 70.5885 53.7978 70.5192 53.8473C70.4956 53.8355 70.4736 53.824 70.4469 53.8116C70.2649 53.7273 70.0537 53.8383 69.8573 53.8541C69.6312 53.8724 69.4053 53.8937 69.1794 53.9138C69.1809 53.7754 69.1404 53.6275 69.0625 53.5206C69.0621 53.5178 69.0622 53.5161 69.0618 53.5132C69.0601 53.5016 69.0542 53.498 69.046 53.4989C69.044 53.4964 69.0423 53.4935 69.0402 53.491C69.0123 53.4585 68.9718 53.4612 68.9284 53.4715C68.8974 53.3901 68.8551 53.3175 68.7901 53.2768C68.7399 53.2454 67.8789 53.3506 67.8742 53.3511C67.6217 53.3853 67.4322 53.4098 67.2056 53.4474C67.1629 53.4407 67.1173 53.4485 67.0705 53.4629C67.0301 53.4602 66.9857 53.4542 66.9816 53.4902L66.9813 53.4933C66.9431 53.5065 66.9052 53.5183 66.8687 53.5232C66.5957 53.5594 66.0115 53.5564 65.7385 53.5925C64.3873 53.7715 64.8825 53.7079 63.4439 53.8752C63.3828 53.8818 63.3215 53.8877 63.2603 53.8942L61.4735 53.8837C61.8604 53.8178 62.2812 53.7457 62.413 53.7194C62.5422 53.6936 62.6697 53.6582 62.798 53.6276C62.8402 53.6047 62.9434 53.6073 62.9247 53.5589C62.8636 53.402 62.807 53.2995 62.7478 53.2326C62.7601 53.1661 62.7541 53.1335 62.7168 53.1932C62.7147 53.1937 62.7125 53.1942 62.7103 53.1947C62.5538 53.0599 62.3695 53.1457 62.0346 53.1673C61.794 53.1829 61.5536 53.2015 61.3132 53.2195C59.9493 53.3215 61.192 53.2336 59.9976 53.3165C59.636 53.3355 59.5588 53.3443 59.2264 53.3468C59.1467 53.3475 59.0668 53.3405 58.9872 53.3444C58.689 53.3591 58.3918 53.4126 58.0965 53.4582C57.8148 53.4999 57.5366 53.5649 57.2611 53.6424C57.1623 53.6701 57.0649 53.7044 56.9651 53.727C56.7577 53.7741 56.5489 53.8123 56.3405 53.8535L54.8258 53.8834C54.8147 53.8696 54.8032 53.856 54.7918 53.8424C54.8078 53.7985 54.8207 53.7538 54.8242 53.7064C54.8275 53.6614 54.7647 53.7183 54.7163 53.7474C54.701 53.7276 54.6848 53.7083 54.6713 53.6876C53.9859 53.7166 53.3026 53.7872 52.6183 53.836C52.6246 53.8182 52.6268 53.7998 52.6198 53.7798C52.5253 53.5093 52.1924 53.5509 52.0119 53.5484C51.7822 53.5453 51.5443 53.5427 51.3151 53.5551C51.1686 53.563 51.0224 53.5781 50.8761 53.5896C50.3375 53.6382 49.8061 53.7459 49.2744 53.8507L48.372 53.8453L48.3711 53.9907C48.3532 53.9619 48.3054 53.9994 48.2746 54.0108C48.2614 54.0157 48.24 54.0208 48.2205 54.0261C48.0809 54.0532 47.9414 54.08 47.8023 54.1092C47.2836 54.188 46.7635 54.2543 46.2449 54.3339C46.2449 54.3339 45.5655 54.4394 45.5021 54.4614C45.4476 54.4802 45.4048 54.5285 45.3561 54.562C45.4472 54.6611 45.5191 54.7942 45.6133 54.8878L45.6207 54.8865C45.6198 54.8884 45.6195 54.8909 45.6186 54.8929C45.6319 54.9058 45.6454 54.9173 45.6597 54.9283C45.5683 54.9495 45.4714 54.97 45.4418 55.0579C45.4056 55.1654 45.4771 55.2759 45.527 55.3858C45.4729 55.3892 45.458 55.3899 45.3285 55.3979C45.2723 55.4015 45.2243 55.4034 45.1751 55.4059C45.1525 55.3999 45.1317 55.3963 45.1231 55.4085C45.0562 55.4138 44.9901 55.4245 44.9187 55.4493C44.9075 55.4053 44.8896 55.3663 44.8567 55.3384C44.7467 55.2453 44.5815 55.3479 44.444 55.3549C43.8328 55.3862 43.2224 55.4377 42.6127 55.4942C42.5594 55.509 42.4596 55.4772 42.4528 55.5385C42.4448 55.6107 42.4441 55.6914 42.4548 55.7681C42.3695 55.7782 42.2841 55.7876 42.1991 55.8001C42.1413 55.8086 42.0227 55.7697 42.0271 55.8352C42.0339 55.938 42.0832 56.0274 42.1358 56.1158C42.1162 56.1661 42.1002 56.2173 42.0979 56.2719C42.0962 56.3173 42.1616 56.2733 42.212 56.2521C42.2183 56.2644 42.2258 56.2762 42.2315 56.2887C42.6653 56.2853 43.0992 56.2731 43.5329 56.2592C43.5213 56.2862 43.5094 56.3126 43.4953 56.3367C43.5312 56.3468 43.5666 56.3591 43.6023 56.3707C43.493 56.3792 43.3838 56.3882 43.2749 56.4012C43.1835 56.4121 43.0041 56.4603 43.0041 56.4603C43.0041 56.4603 43.0864 56.6845 43.148 56.7585C43.1346 56.7816 43.1219 56.8069 43.1095 56.8334C42.8865 56.8632 42.6247 56.9245 43.1079 57.0515C43.0288 57.0961 42.9749 57.1324 42.9428 57.1612C42.8977 57.1526 42.8638 57.1586 42.8591 57.2045C42.8569 57.2277 42.858 57.247 42.8582 57.2674C42.8024 57.3571 42.7855 57.4785 42.8402 57.6482C42.8788 57.7678 43.0658 57.6664 43.1788 57.6656C43.5015 57.6634 43.8235 57.6489 44.1455 57.63C44.1284 57.6498 44.1119 57.668 44.0943 57.6896C44.042 57.7539 44.2467 57.6566 44.3238 57.6488C44.3816 57.6429 44.4394 57.6385 44.4972 57.6331C44.5363 57.6496 44.5758 57.6638 44.6157 57.6746C44.5559 57.7588 44.5726 57.8675 44.7404 58.0078C44.7119 58.0677 44.7176 58.15 44.794 58.2666C44.8702 58.3828 45.0447 58.335 45.1728 58.3439C45.3367 58.3553 45.5012 58.3326 45.6654 58.3271C45.7362 58.3247 45.807 58.3223 45.8777 58.32C45.8765 58.3216 45.8756 58.3235 45.8743 58.3252C45.846 58.3289 45.8284 58.3315 45.7458 58.339C45.7529 58.3545 45.7577 58.3723 45.7637 58.3889C45.642 58.4105 45.5201 58.4314 45.3983 58.4523C45.2474 58.4748 45.0965 58.4977 44.9456 58.5203C44.6546 58.5638 43.9427 58.6711 43.6151 58.7173C43.5413 58.7277 43.4424 58.6904 43.3786 58.7187C43.321 58.7069 43.2774 58.7119 43.27 58.7589C43.2525 58.8696 43.2571 59.0038 43.302 59.1066C43.3082 59.1383 43.315 59.1697 43.3242 59.1987C43.3344 59.2308 43.3609 59.233 43.396 59.2187C43.4705 59.245 43.5741 59.1705 43.6592 59.1586C43.6902 59.1543 43.7564 59.144 43.7963 59.1383L43.7961 59.1402C44.3022 59.0785 44.8067 59.0016 45.3101 58.917C45.3012 58.9672 45.2996 59.0169 45.3146 59.0653C45.3419 59.1534 45.478 59.0977 45.5606 59.103C45.7399 59.1146 45.9196 59.1163 46.0992 59.1159C46.1745 59.1158 46.2498 59.1139 46.3251 59.1131C46.3241 59.1334 46.3255 59.1538 46.3291 59.1744C46.3446 59.2616 46.4864 59.1915 46.5654 59.1933C46.632 59.1948 46.6986 59.1943 46.7653 59.1943C46.7804 59.2071 46.7941 59.2196 46.8118 59.2331C46.8448 59.2581 46.8809 59.2724 46.9186 59.2821C46.836 59.2954 46.7534 59.3087 46.6712 59.3246C46.4555 59.3663 45.8433 59.3342 46.2225 59.8906C46.2784 59.9727 46.4063 59.8974 46.4982 59.8945C46.5104 59.8941 46.525 59.8931 46.5374 59.8927C46.5596 59.9013 46.5872 59.9045 46.617 59.9058C46.6525 59.9619 46.7391 59.9142 46.8057 59.9071C47.0911 59.9155 47.3762 59.9305 47.661 59.9533C48.2607 60.0008 48.8606 60.0526 49.4619 60.0673C50.5805 60.0942 51.6991 60.1326 52.818 60.1372C54.0347 60.1283 54.9397 60.0552 56.1552 59.9981C56.1609 60.0787 56.2934 60.0714 56.3671 60.0801C56.5482 60.1014 56.7315 60.0891 56.9136 60.084C57.3683 60.0712 57.8046 60.0364 58.2497 60.0001C58.262 60.0226 58.3393 60.0218 58.375 60.0237C58.4862 60.0298 58.5975 60.0138 58.7087 60.008C58.7126 60.0078 58.9864 59.9937 59.2493 59.9775C59.2502 59.9797 59.2514 59.9817 59.2525 59.9838C59.2536 60.0048 59.2541 60.0254 59.2528 60.0454C59.2661 60.0433 59.2795 60.0414 59.2928 60.0394C59.2943 60.0408 59.2955 60.0427 59.2971 60.0441C59.4022 60.1294 59.5549 60.0141 59.684 60C59.9938 59.9662 60.3039 59.9325 60.614 59.8995C60.6151 59.9209 60.6183 59.9422 60.6255 59.9632C60.6588 60.0606 60.8104 59.9491 60.9026 59.9388C60.9026 59.9388 61.1495 59.9077 61.3903 59.8768C61.3951 59.877 61.3999 59.8769 61.4047 59.8771C62.012 59.895 62.6192 59.9188 63.2261 59.9482C63.7001 59.9728 64.1739 59.9988 64.6476 60.0272C64.653 60.0291 64.6585 60.0307 64.6639 60.0327C64.7339 60.0577 64.8104 60.1601 64.8717 60.1153C64.9668 60.1609 65.0638 60.2011 65.077 60.0556C65.4209 60.0774 66.076 60.1394 66.4197 60.1648C67.436 60.2398 67.5083 60.252 68.5099 60.336C68.8596 60.3653 69.2093 60.3934 69.559 60.4222C70.174 60.4639 70.5686 60.5006 71.1616 60.51C71.2347 60.5112 71.3185 60.5407 71.3929 60.5421ZM45.6186 54.8929C45.6168 54.8912 45.615 54.8894 45.6133 54.8878C45.5352 54.902 45.5344 54.9036 45.6186 54.8929ZM67.3417 59.7914C67.1066 59.7718 66.8797 59.7533 66.4478 59.7214C66.3696 59.7156 66.2914 59.7114 66.2133 59.7058C66.214 59.6591 66.2113 59.611 66.2092 59.5632C66.2192 59.5371 66.225 59.51 66.2272 59.4819C66.2482 59.4819 66.2692 59.482 66.2902 59.4821C66.3037 59.5084 66.3228 59.5401 66.3411 59.5709C66.3407 59.5837 66.3387 59.597 66.339 59.6096C66.3395 59.6378 66.3578 59.645 66.3856 59.6411C66.4459 59.7079 66.5677 59.6629 66.6562 59.6777C67.6324 59.8412 67.1596 59.7599 67.3417 59.7914ZM75.7365 56.5275C75.7369 56.4962 75.7369 56.4648 75.7342 56.4336C76.0022 56.4036 76.2703 56.3737 76.5384 56.3435C76.5723 56.345 76.6063 56.3463 76.6403 56.3479C76.4008 56.401 75.9226 56.5109 75.9226 56.5109C75.9226 56.5109 75.7697 56.5235 75.7365 56.5275ZM75.9734 55.7582C75.9583 55.7218 75.9412 55.6866 75.9224 55.6524C75.9796 55.6525 76.035 55.6467 76.0868 55.6295C76.2905 55.6196 76.4158 55.6145 76.6834 55.6004L76.6843 55.6042C76.6179 55.6224 76.5516 55.6424 76.4848 55.6558C76.3629 55.6802 76.1635 55.7187 75.9734 55.7582ZM58.8023 53.8679L58.3578 53.8653C58.5657 53.8317 58.7744 53.7989 58.9832 53.7887C59.0665 53.7846 59.1499 53.7917 59.2332 53.791C59.2723 53.7907 59.2884 53.7894 59.3214 53.7889C59.1485 53.8162 58.9753 53.8414 58.8023 53.8679ZM67.5603 53.8512C67.5646 53.8476 67.5679 53.8434 67.5713 53.8393C67.6229 53.8321 67.6826 53.824 67.7377 53.8166C67.6785 53.8281 67.6194 53.8398 67.5603 53.8512ZM52.2435 53.6027C52.2747 53.5869 52.3229 53.5786 52.3975 53.5819C52.3463 53.5896 52.2948 53.5954 52.2435 53.6027Z" fill="#E83434"/>
<path d="M99.1141 35.346C99.1594 35.3787 99.2093 35.3973 99.2689 35.3852C99.28 35.383 99.2909 35.3783 99.3019 35.375C99.3065 35.3811 99.3111 35.3837 99.3165 35.3749C99.3176 35.3732 99.3189 35.3713 99.32 35.3695C99.4916 35.3091 99.6467 35.1308 99.7658 34.9699C99.8235 34.892 99.6783 34.8403 99.5348 34.7921C99.4922 34.7221 99.3855 34.7022 99.3 34.6645C99.3018 34.6409 99.3312 34.6148 99.4038 34.5845C98.7695 33.9845 98.1372 33.3817 97.5152 32.7674C98.2129 33.2644 98.9156 33.7544 99.6262 34.2328C99.6895 34.3267 99.7544 34.4121 99.8483 34.3582C99.9193 34.3174 99.9523 34.2438 99.9716 34.1585L101.597 35.2943C101.985 35.635 102.367 35.9842 102.769 36.309C103.195 36.6585 103.622 37.0081 104.071 37.3256C104.303 37.4877 104.579 37.1862 104.521 36.9604C104.895 37.1713 105.27 37.3822 105.645 37.5936C105.646 37.6268 105.647 37.6596 105.651 37.6975C105.666 37.8468 105.866 37.8573 105.981 37.9267C106.244 38.0861 106.973 38.4734 107.245 38.6191C107.28 38.6068 107.317 38.5972 107.352 38.5866C107.428 38.6337 107.504 38.6807 107.578 38.7299C107.591 38.7379 107.598 38.7879 107.597 38.7714C107.593 38.6879 107.586 38.6051 107.579 38.5222C107.734 38.4801 107.887 38.4333 108.031 38.346C108.091 38.3094 107.959 38.2481 107.91 38.2146C107.787 38.1291 107.658 38.0505 107.529 37.9736C107.549 37.8997 107.557 37.8349 107.556 37.7764C107.582 37.7445 107.61 37.7103 107.638 37.6711C107.68 37.6135 107.62 37.6017 107.521 37.6079C107.411 37.3597 107.068 37.278 106.796 37.1152C106.471 36.9212 106.146 36.73 105.82 36.5382C105.812 36.4993 105.803 36.4614 105.793 36.4314C105.749 36.3048 105.593 36.2785 105.492 36.2047C105.361 36.1101 105.229 36.0178 105.096 35.926C105.278 36.0218 105.459 36.1176 105.643 36.2087C105.804 36.2935 105.965 36.3783 106.126 36.4632C106.242 36.5431 106.363 36.6116 106.493 36.6566C106.503 36.6617 106.512 36.6668 106.522 36.6718C106.664 36.7459 106.784 36.9047 106.933 36.9536C106.992 36.9912 107.055 37.0083 107.128 36.9779C107.132 36.976 107.136 36.9723 107.141 36.97C107.162 37.0158 107.232 37.0276 107.303 37.0389C107.349 37.0729 107.418 37.0848 107.487 37.0966C107.53 37.1162 107.562 37.1297 107.597 37.1454C107.612 37.1531 107.638 37.1665 107.652 37.1738C108.031 37.3637 108.191 37.5438 108.416 37.5099C108.467 37.5356 108.518 37.561 108.57 37.5867C108.601 37.6144 108.647 37.6806 108.652 37.641C108.652 37.637 108.653 37.6326 108.653 37.6286C108.703 37.6537 108.753 37.6784 108.803 37.7034C108.813 37.686 108.822 37.6753 108.832 37.6611C108.944 37.7271 109.074 37.8048 109.163 37.8565C109.261 37.9126 109.343 38.0287 109.442 38.0819C109.512 38.1584 109.585 38.1941 109.662 38.1348C109.746 38.0711 109.82 37.9691 109.867 37.8611C109.919 37.7774 109.955 37.6852 109.964 37.6026C109.973 37.5225 109.92 37.4854 109.838 37.4686C109.745 37.4019 109.589 37.3925 109.485 37.3346C109.501 37.2565 109.506 37.1788 109.498 37.1186C109.479 36.975 109.275 36.9842 109.164 36.9169C108.95 36.7983 108.684 36.6507 108.424 36.5087C108.167 36.31 107.899 36.1256 107.636 35.9354C107.386 35.7548 107.134 35.5765 106.883 35.3971C107.21 35.5344 107.54 35.6657 107.871 35.7951C109.156 36.5256 110.439 37.2591 111.721 37.9953C111.946 38.127 112.154 38.2892 112.396 38.3905C112.464 38.4188 112.538 38.4502 112.61 38.48C112.644 38.54 112.679 38.589 112.722 38.5438C112.727 38.5385 112.73 38.5323 112.735 38.5267C112.993 38.6123 113.207 38.5945 113.122 38.0806C113.106 37.9832 112.993 37.9555 112.928 37.8939C112.646 37.6272 112.302 37.311 112.025 37.0544C111.75 36.8067 111.515 36.5928 111.277 36.3798C111.383 36.4263 111.46 36.4601 111.581 36.5132C112.054 36.7094 112.506 36.9445 112.975 37.1493C113.087 37.1985 113.186 37.3007 113.318 37.2852C113.453 37.2693 113.73 37.1984 113.704 37.0635C113.686 36.9678 113.636 36.8751 113.568 36.7856C113.578 36.7725 113.586 36.7577 113.587 36.7386C113.593 36.6625 113.52 36.6472 113.438 36.6392C113.045 36.2594 112.344 35.9628 112.112 35.8348C111.068 35.2853 110.02 34.7417 108.973 34.1976C109.016 34.1963 109.059 34.1937 109.101 34.1945C109.112 34.1036 109.138 34.0093 109.152 33.9175C109.231 33.9651 109.327 34.0233 109.384 34.0577C109.342 34.1092 109.288 34.1685 109.203 34.2456C109.48 34.3885 109.756 34.5322 110.034 34.6743C110.408 34.866 110.736 35.1125 111.144 35.1591C111.218 35.2023 111.294 35.2407 111.375 35.2711C111.42 35.2879 111.371 35.2284 111.326 35.1652C111.471 35.1598 111.626 35.1292 111.798 35.0614C111.902 35.0202 111.782 34.8269 111.712 34.7585C111.538 34.5881 111.323 34.4725 111.098 34.3689C111.116 34.3266 111.118 34.2575 111.095 34.1491C111.57 33.9995 111.253 33.8851 111.119 33.8335C111.066 33.7997 111.014 33.7641 110.961 33.7295C110.919 33.6308 110.816 33.5933 110.709 33.5616C110.477 33.4035 110.248 33.2419 110.017 33.0835C110.193 33.1204 110.323 33.0904 110.057 32.6498C110.195 32.5751 110.275 32.5064 110.161 32.5081C110.068 32.468 109.976 32.4268 109.883 32.3865C109.864 32.3589 109.852 32.3392 109.831 32.3095C109.678 32.0954 109.378 32.0588 109.152 31.9326C109.142 31.9269 108.864 31.7701 108.633 31.6406C108.672 31.6559 108.711 31.671 108.75 31.6862C108.788 31.7013 108.826 31.7167 108.865 31.7315C108.973 31.7972 109.069 31.9417 109.199 31.8839C109.205 31.8813 109.209 31.879 109.215 31.8765C109.353 31.9499 109.526 32.0599 109.513 31.7174C109.846 31.4935 109.611 31.3794 109.448 31.3097C109.403 31.2121 109.236 31.2299 109.138 31.1811C108.825 31.025 108.501 30.8505 108.193 30.6866C108.117 30.6455 108.041 30.6043 107.965 30.5634L108.005 30.5066L103.595 27.424C103.581 27.3714 103.557 27.3077 103.525 27.2356C103.58 27.1659 103.581 27.1137 103.471 27.1206C103.456 27.0906 103.442 27.0619 103.425 27.0289C103.303 26.8039 102.999 26.7802 102.784 26.6588C102.537 26.5192 102.288 26.3832 102.04 26.2457C102.15 26.0895 102.224 25.8929 102.228 25.7162C102.23 25.7126 102.231 25.7107 102.233 25.7072C102.241 25.6928 102.237 25.6845 102.228 25.6797C102.228 25.6754 102.229 25.6709 102.228 25.6667C102.225 25.6099 102.181 25.5843 102.129 25.5651C102.161 25.4507 102.174 25.3383 102.139 25.2459C102.112 25.1746 101.144 24.6832 101.138 24.6804C100.852 24.5403 100.637 24.4336 100.375 24.3156C100.336 24.2776 100.283 24.2542 100.223 24.2373C100.184 24.2056 100.143 24.1673 100.111 24.2052C100.109 24.2065 100.109 24.2073 100.108 24.2086C100.058 24.1965 100.01 24.183 99.9684 24.1626C99.6591 24.0101 99.3486 23.8592 99.0392 23.7066C97.508 22.9514 98.0677 23.2304 96.4558 22.3998C96.3876 22.364 96.32 22.3271 96.2519 22.2912L94.4212 21.0116C94.8711 21.2113 95.3608 21.4278 95.5171 21.4914C95.6703 21.5538 95.8293 21.604 95.9854 21.6603C96.0468 21.6643 96.151 21.7404 96.1696 21.6722C96.2301 21.4505 96.2523 21.294 96.2439 21.176C96.3086 21.1092 96.3281 21.0678 96.2429 21.1092C96.2403 21.1083 96.2376 21.1073 96.235 21.1064C96.1798 20.8421 95.9228 20.8089 95.5611 20.5958C95.3012 20.4428 95.0393 20.2934 94.7776 20.1432C93.2939 19.2915 94.6419 20.0733 93.3476 19.3202C92.9605 19.0851 92.8742 19.0404 92.53 18.8075C92.4475 18.7516 92.3708 18.687 92.2857 18.635C91.9673 18.4402 91.6194 18.2901 91.2797 18.1323C90.9571 17.9798 90.6197 17.8563 90.2754 17.7489C90.1519 17.7104 90.0248 17.6801 89.9043 17.6351C89.6539 17.5415 89.409 17.4366 89.1622 17.3356L87.2914 16.0279C87.2908 16.0044 87.2897 15.9808 87.2886 15.9573C87.3395 15.9188 87.3879 15.8771 87.4287 15.8257C87.4674 15.777 87.3581 15.797 87.2855 15.7958C87.2852 15.7625 87.2837 15.729 87.286 15.6959C86.558 15.2426 85.7993 14.8381 85.0567 14.408C85.0771 14.3923 85.0939 14.3729 85.1024 14.3452C85.2175 13.9709 84.8423 13.7819 84.6584 13.6511C84.4245 13.4846 84.1817 13.3129 83.936 13.1643C83.779 13.0693 83.6168 12.9828 83.4571 12.8921C82.8647 12.5651 82.2332 12.3104 81.6038 12.0524L80.6792 11.406L80.5642 11.5706C80.5684 11.5252 80.4897 11.5338 80.4491 11.5249C80.4317 11.5211 80.4056 11.5118 80.3814 11.5039C80.2165 11.4357 80.0518 11.3671 79.8858 11.3016C79.29 11.0231 78.7028 10.7295 78.1065 10.452C78.1055 10.4514 77.3245 10.0899 77.2419 10.0698C77.1711 10.0525 77.0891 10.077 77.0127 10.0806C77.0287 10.2578 76.9982 10.46 77.0217 10.6332C77.0234 10.6339 77.0286 10.6362 77.0303 10.6369C77.0278 10.6385 77.0256 10.6411 77.0231 10.6427C77.0228 10.6425 77.023 10.6426 77.0225 10.6423C77.026 10.6663 77.0315 10.6894 77.0375 10.7121C76.9269 10.6713 76.8111 10.6258 76.7116 10.7047C76.5899 10.8012 76.5767 10.9774 76.5419 11.1377C76.4835 11.1031 76.4677 11.0934 76.328 11.0107C76.2674 10.9748 76.2164 10.9429 76.1639 10.9109C76.1453 10.8879 76.1268 10.8691 76.1083 10.8769C76.0353 10.8355 75.9589 10.8008 75.8659 10.7783C75.8889 10.7203 75.9011 10.6633 75.8891 10.6083C75.8491 10.4245 75.5985 10.4238 75.4515 10.3342C74.7979 9.9362 74.1293 9.56166 73.4574 9.19329C73.391 9.17228 73.3132 9.0653 73.258 9.13021C73.1932 9.20654 73.1291 9.29769 73.0799 9.39244C72.9842 9.34339 72.889 9.29346 72.7916 9.24732C72.7255 9.21598 72.6339 9.08768 72.587 9.16512C72.5133 9.28685 72.4938 9.42336 72.4786 9.56112C72.4189 9.60427 72.3623 9.65106 72.317 9.71159C72.2796 9.76194 72.3814 9.7583 72.45 9.77C72.4468 9.78839 72.4453 9.8072 72.4413 9.82534C72.8905 10.1293 73.3466 10.4233 73.8038 10.7152C73.7707 10.7376 73.7377 10.7592 73.7043 10.7766C73.7333 10.8135 73.7601 10.8527 73.7878 10.891C73.6686 10.8232 73.5492 10.756 73.4269 10.6935C73.3243 10.641 73.154 10.4375 73.1017 10.5685C73.0347 10.7366 73.0105 10.8816 73.0157 11.0093C72.9838 11.0261 72.9509 11.0458 72.9173 11.0671C72.6644 10.9428 72.3469 10.8266 72.7445 11.3138C72.628 11.3083 72.5441 11.3113 72.4884 11.3213C72.4488 11.2795 72.4092 11.2622 72.3683 11.311C72.3478 11.3359 72.3338 11.3585 72.3179 11.3819C72.1901 11.4442 72.0774 11.5701 72.0005 11.8017C71.9463 11.9649 72.2184 11.9824 72.3353 12.0617C72.6692 12.2881 73.0119 12.5002 73.3581 12.707C73.325 12.7175 73.2937 12.7263 73.2587 12.7384C73.1543 12.7744 73.4414 12.8091 73.5269 12.8549C73.591 12.8891 73.654 12.9253 73.7177 12.9601C73.745 13.0066 73.7744 13.0508 73.807 13.0913C73.6794 13.1445 73.6112 13.2799 73.6739 13.5583C73.5974 13.6061 73.5387 13.7037 73.5258 13.8903C73.513 14.0765 73.73 14.146 73.8549 14.2469C74.0147 14.3762 74.2018 14.467 74.3751 14.5772C74.4498 14.6248 74.5245 14.6723 74.5992 14.7199C74.5967 14.7209 74.5943 14.7224 74.5916 14.7233C74.5595 14.7075 74.5394 14.6979 74.4485 14.6479C74.4436 14.6705 74.4347 14.6941 74.4278 14.7172C74.2855 14.6555 74.1437 14.5928 74.0019 14.53C73.8289 14.4486 73.6556 14.3675 73.4826 14.286C73.149 14.1291 72.3321 13.746 71.9586 13.566C71.8745 13.5255 71.802 13.4129 71.7141 13.3998C71.6641 13.3455 71.6154 13.3203 71.5708 13.3684C71.4659 13.4818 71.3653 13.6375 71.3308 13.7861C71.3123 13.8265 71.2946 13.8671 71.2814 13.9065C71.2666 13.9502 71.2922 13.9714 71.3395 13.9801C71.3956 14.0629 71.5607 14.0518 71.6575 14.0986C71.6928 14.1157 71.769 14.151 71.8146 14.1728C71.8139 14.1735 71.8137 14.1741 71.813 14.1748C72.3823 14.4638 72.9618 14.7343 73.5463 14.9953C73.4978 15.0461 73.4571 15.1014 73.4345 15.1671C73.3935 15.2865 73.5772 15.3198 73.658 15.3844C73.8335 15.5248 74.0171 15.6542 74.2022 15.7812C74.2798 15.8344 74.3588 15.8857 74.4369 15.9382C74.42 15.9605 74.4054 15.9847 74.3929 16.0107C74.3404 16.1208 74.5415 16.1417 74.6213 16.1998C74.6887 16.2488 74.7576 16.2955 74.8262 16.3428C74.8317 16.368 74.836 16.392 74.8437 16.4199C74.8579 16.4717 74.8839 16.5136 74.915 16.5513C74.8196 16.5077 74.7242 16.4643 74.6271 16.424C74.3724 16.3184 73.7676 15.8476 73.7209 16.7487C73.714 16.8817 73.9047 16.8869 74.0016 16.9487C74.0145 16.957 74.0303 16.9661 74.0434 16.9745C74.0595 16.9999 74.0854 17.0232 74.115 17.0458C74.1076 17.1347 74.2341 17.142 74.3082 17.1812C74.5953 17.3932 74.877 17.6126 75.1522 17.8404C75.7321 18.32 76.3088 18.8044 76.9162 19.2477C78.0463 20.0718 79.1673 20.909 80.3152 21.708C81.5744 22.5611 82.8516 23.3872 84.1474 24.1847C84.09 24.2803 84.2321 24.3659 84.3011 24.4281C84.4708 24.5808 84.669 24.6969 84.8605 24.8203C85.3385 25.1284 85.8149 25.3983 86.3014 25.6728C86.2964 25.7071 86.3766 25.7611 86.4119 25.7886C86.5216 25.8744 86.6486 25.9352 86.7677 26.0075C86.7718 26.01 87.0646 26.1882 87.3479 26.3564C87.3472 26.3595 87.3468 26.3626 87.3463 26.3658C87.3309 26.3905 87.3152 26.4142 87.2982 26.4359C87.3136 26.443 87.3288 26.4504 87.3442 26.4575C87.3446 26.4602 87.3443 26.4632 87.3449 26.4659C87.386 26.6374 87.6338 26.6148 87.7776 26.6903C88.123 26.8718 88.4687 27.0534 88.8137 27.236C88.798 27.261 88.7846 27.2875 88.7755 27.3165C88.7333 27.4508 88.9768 27.4317 89.0798 27.4854C89.0808 27.4859 89.3583 27.6252 89.6304 27.7609C89.6352 27.7645 89.6402 27.7679 89.6451 27.7715C90.256 28.2226 90.8622 28.6804 91.4637 29.1445C91.9322 29.5087 92.3994 29.8744 92.8647 30.2427C92.8688 30.2487 92.8731 30.2544 92.8772 30.2605C92.9295 30.3385 92.9279 30.5091 93.0262 30.5017C93.0883 30.621 93.1565 30.7355 93.2843 30.5795C93.6211 30.8483 93.9582 31.1165 94.292 31.3892C95.279 32.1954 95.3439 32.2605 96.3088 33.0666C96.6456 33.348 96.9835 33.628 97.3208 33.9087C97.921 34.3925 98.2983 34.7141 98.9012 35.1456C98.9755 35.1988 99.0383 35.2916 99.1138 35.3459L99.1141 35.346ZM77.0228 10.6424C77.0223 10.6393 77.0222 10.6362 77.0218 10.6332C76.9302 10.5939 76.9277 10.5949 77.0228 10.6424ZM95.5341 31.6191C95.3074 31.4301 95.0884 31.248 94.669 30.9054C94.5931 30.8434 94.516 30.7831 94.4399 30.7213C94.4773 30.6687 94.5123 30.6122 94.5477 30.5563C94.5785 30.5339 94.6057 30.5071 94.63 30.4768C94.6516 30.4917 94.6731 30.5067 94.6947 30.5217C94.6879 30.5612 94.6828 30.6108 94.6774 30.6587C94.6668 30.673 94.6545 30.6867 94.6449 30.7012C94.6233 30.7336 94.6364 30.7547 94.6681 30.77C94.6777 30.8887 94.8384 30.924 94.9178 31.0036C95.7942 31.8819 95.3714 31.4541 95.5341 31.6191V31.6191ZM106.736 33.867C106.761 33.8317 106.786 33.796 106.807 33.7586C107.107 33.9147 107.406 34.071 107.706 34.2267C107.74 34.2526 107.774 34.2781 107.807 34.304C107.519 34.1944 107.23 34.0873 106.941 33.9801C106.921 33.9689 106.774 33.886 106.736 33.867L106.736 33.867ZM107.584 33.1611C107.597 33.109 107.607 33.0568 107.615 33.0047C107.673 33.0453 107.735 33.0781 107.802 33.0953C108.019 33.2285 108.152 33.3116 108.439 33.4855C108.438 33.4872 108.437 33.4887 108.437 33.4905C108.354 33.464 108.27 33.4396 108.191 33.4075C108.046 33.3488 107.811 33.251 107.584 33.1611V33.1611ZM91.6844 19.0986L91.2291 18.7803C91.4693 18.8895 91.7099 19.0003 91.9328 19.1369C92.0217 19.1913 92.102 19.2586 92.1883 19.3169C92.2288 19.3443 92.2463 19.3542 92.2808 19.3771C92.0814 19.2854 91.8833 19.1912 91.6844 19.0986L91.6844 19.0986ZM100.423 25.0258C100.43 25.0249 100.437 25.0224 100.443 25.0201C100.502 25.0487 100.57 25.0817 100.632 25.1125C100.562 25.0836 100.492 25.0549 100.423 25.0258L100.423 25.0258ZM84.8542 13.8771C84.8987 13.8813 84.9548 13.906 85.0289 13.9627C84.9702 13.935 84.9127 13.9051 84.8542 13.8771Z" fill="#E83434"/>
</svg>
