<svg width="12" height="12" viewBox="0 0 12 12" fill="none" xmlns="http://www.w3.org/2000/svg">
<path d="M9.92336 10.5657L10.1709 10.8132L9.92336 10.5657ZM1.43428 2.07664L1.18679 1.82915L1.18679 1.82915L1.43428 2.07664ZM2.14915 1.36177L2.39664 1.60926L2.14915 1.36177ZM5.10187 4.31449L5.34936 4.56198V4.56198L5.10187 4.31449ZM7.68551 6.89813L7.93299 7.14561L7.933 7.14561L7.68551 6.89813ZM9.50182 6.92726L9.74931 6.67978L9.50182 6.92726ZM10.6091 8.03454L10.3616 8.28202L10.6091 8.03454ZM10.6382 9.85085L10.3907 9.60336V9.60336L10.6382 9.85085ZM7.53196 7.05167L7.28447 6.80418L7.28447 6.80419L7.53196 7.05167ZM4.94833 4.46804L4.70084 4.22055L4.70084 4.22055L4.94833 4.46804ZM4.90339 5.46437L4.63344 5.68714L4.90339 5.46437ZM7.06318 6.91413C6.87171 6.9406 6.73794 7.11728 6.76441 7.30876C6.79088 7.50024 6.96756 7.63401 7.15904 7.60754L7.06318 6.91413ZM5.4142 9.28442C5.25761 9.17109 5.03879 9.20615 4.92546 9.36274C4.81213 9.51933 4.84719 9.73815 5.00378 9.85148L5.4142 9.28442ZM5.65714 2.73056C5.57532 2.55543 5.36702 2.47979 5.19189 2.56161C5.01676 2.64344 4.94113 2.85174 5.02295 3.02686L5.65714 2.73056ZM3.37436 1.41414C3.55477 1.48353 3.75728 1.39353 3.82667 1.21312C3.89606 1.0327 3.80606 0.830193 3.62564 0.760803L3.37436 1.41414ZM1.18679 1.82915C0.489666 2.52628 0.536426 3.67931 0.958802 4.83049C1.39231 6.012 2.26576 7.33487 3.46544 8.53456L3.96042 8.03958C2.81591 6.89508 2.00717 5.6556 1.61596 4.58937C1.21363 3.49282 1.29316 2.71273 1.68177 2.32413L1.18679 1.82915ZM5.19582 4.71553L5.34936 4.56198L4.85439 4.067L4.70084 4.22055L5.19582 4.71553ZM5.92631 6.07369C5.65621 5.8036 5.40622 5.5238 5.17334 5.2416L4.63344 5.68714C4.87819 5.98374 5.14312 6.28046 5.43133 6.56867L5.92631 6.07369ZM7.43802 6.65064L7.28447 6.80418L7.77945 7.29916L7.93299 7.14561L7.43802 6.65064ZM9.74931 6.67978C9.11056 6.04103 8.07564 6.01302 7.43802 6.65064L7.933 7.14561C8.2824 6.79621 8.87387 6.79428 9.25433 7.17475L9.74931 6.67978ZM10.8566 7.78705L9.74931 6.67978L9.25433 7.17475L10.3616 8.28202L10.8566 7.78705ZM10.8857 10.0983C11.5233 9.46071 11.4953 8.42579 10.8566 7.78705L10.3616 8.28202C10.7421 8.66249 10.7402 9.25396 10.3907 9.60336L10.8857 10.0983ZM4.70084 4.22055C4.30774 4.61366 4.27024 5.24701 4.63344 5.68714L5.17334 5.2416C5.04137 5.08167 5.05601 4.85533 5.19582 4.71553L4.70084 4.22055ZM1.90166 1.11428L1.18679 1.82915L1.68177 2.32413L2.39664 1.60926L1.90166 1.11428ZM10.1709 10.8132L10.8857 10.0983L10.3907 9.60336L9.67588 10.3182L10.1709 10.8132ZM7.15904 7.60754C7.38756 7.57595 7.60688 7.47173 7.77945 7.29916L7.28447 6.80419C7.22296 6.8657 7.14514 6.9028 7.06318 6.91413L7.15904 7.60754ZM6.31891 6.44704C6.18634 6.32694 6.05521 6.2026 5.92631 6.07369L5.43133 6.56867C5.56892 6.70625 5.70843 6.83852 5.84892 6.9658L6.31891 6.44704ZM3.46544 8.53456C3.5817 8.65082 3.69904 8.76394 3.81722 8.87383L4.29389 8.36121C4.18193 8.2571 4.07069 8.14986 3.96042 8.03958L3.46544 8.53456ZM5.00378 9.85148C5.99411 10.5682 7.00135 11.0591 7.89158 11.2548C8.7706 11.4481 9.61677 11.3673 10.1709 10.8132L9.67588 10.3182C9.36943 10.6247 8.82279 10.7429 8.04193 10.5712C7.27229 10.4019 6.3526 9.9636 5.4142 9.28442L5.00378 9.85148ZM5.34936 4.56198C5.8439 4.06744 5.93778 3.33121 5.65714 2.73056L5.02295 3.02686C5.1879 3.37991 5.12612 3.79528 4.85439 4.06701L5.34936 4.56198ZM3.62564 0.760803C3.0471 0.538287 2.36704 0.6489 1.90166 1.11428L2.39664 1.60926C2.65254 1.35335 3.0352 1.2837 3.37436 1.41414L3.62564 0.760803Z" fill="#D9D9D9"/>
</svg>
