<svg width="39" height="43" viewBox="0 0 39 43" fill="none" xmlns="http://www.w3.org/2000/svg">
<path d="M30.8119 16.7345L34.9721 18.985L35.8431 19.4743C37.6986 20.5168 37.6986 23.2044 35.8431 24.2469L24.0265 30.8858C21.286 32.4255 17.9487 32.4255 15.2082 30.8858L3.39162 24.2469C1.53612 23.2044 1.53613 20.5168 3.39163 19.4743L4.26255 18.985L8.19219 16.7345M31.7167 26.7545L35.4982 28.658C37.4485 29.6398 37.5111 32.4188 35.6071 33.4886L24.0265 39.9949C21.286 41.5346 17.9487 41.5346 15.2082 39.9949L3.79657 33.5835C1.85984 32.4954 1.96655 29.6549 3.9794 28.7171L8.19219 26.7545M24.0265 21.2052L35.8431 14.5663C37.6986 13.5238 37.6986 10.8362 35.8431 9.7937L24.0265 3.15478C21.286 1.61508 17.9487 1.61507 15.2082 3.15478L3.39163 9.7937C1.53613 10.8362 1.53612 13.5238 3.39162 14.5663L15.2082 21.2052C17.9487 22.7449 21.286 22.7449 24.0265 21.2052Z" stroke="white" strokeWidth="2.93622"/>
</svg>
