<svg width="356" height="340" viewBox="0 0 356 340" fill="none" xmlns="http://www.w3.org/2000/svg">
<path d="M113 205.165L123.391 191.346C129.348 183.422 137.177 177.098 146.176 172.939L164.561 164.442C165.202 164.146 165.342 163.296 164.83 162.809L153.636 152.18C147.145 146.017 143.47 137.459 143.47 128.509V128.509C143.47 120.087 146.724 111.991 152.554 105.913L155.513 102.828C162.148 95.9107 171.317 92 180.902 92V92C190.26 92 199.233 95.729 205.835 102.362L209.533 106.077C215.466 112.038 218.797 120.106 218.797 128.517V128.517C218.797 137.444 215.046 145.959 208.461 151.985L196.84 162.618C196.263 163.146 196.488 164.101 197.239 164.317L206.91 167.093C214.752 169.344 222.053 173.172 228.366 178.341L232.143 181.433C236.484 184.988 240.305 189.133 243.495 193.749L244.863 195.73C249.171 201.963 252.258 208.956 253.963 216.339L254.305 217.823C256.865 228.909 249.673 239.895 238.488 241.983L229.618 243.639C228.332 243.879 227.025 243.992 225.717 243.977L155.319 243.165" stroke="#373737" stroke-width="7" stroke-linecap="round"/>
<path d="M100 224.622L113.715 241.064C116.367 244.243 121.183 244.439 124.084 241.486L156 209" stroke="#18E074" strokeWidth="7" strokeLinecap="round"/>
<path d="M92.4138 27.1958L110.097 59.881" stroke="#E83434" strokeWidth="7" strokeLinecap="round"/>
<path d="M26.1035 84.6265L59.242 103.426" stroke="#FBE62E" strokeWidth="7" strokeLinecap="round"/>
<path d="M297.976 234.346L331.115 253.145" stroke="#FBE62E" strokeWidth="7" strokeLinecap="round"/>
<path d="M264.365 27.1958L246.069 59.5723" stroke="#FBE62E" strokeWidth="7" strokeLinecap="round"/>
<path d="M329.959 86.2402L296.876 105.128" stroke="#E83434" strokeWidth="7" strokeLinecap="round"/>
<path d="M60.2961 231.742L27.2131 250.63" stroke="#E83434" strokeWidth="7" strokeLinecap="round"/>
<path d="M179.234 4L178.757 40.7791" stroke="#18E074" strokeWidth="7" strokeLinecap="round"/>
<path d="M352 169.069L313.448 168.613" stroke="#18E074" strokeWidth="7" strokeLinecap="round"/>
<path d="M42.5515 169.069L3.99994 168.613" stroke="#18E074" strokeWidth="7" strokeLinecap="round"/>
<path d="M179.234 299.221L178.757 336" stroke="#18E074" strokeWidth="7" strokeLinecap="round"/>
<path d="M109.641 282.351L91.3445 314.728" stroke="#FBE62E" strokeWidth="7" strokeLinecap="round"/>
<path d="M247.138 280.243L264.821 312.928" stroke="#E83434" strokeWidth="7" strokeLinecap="round"/>
</svg>
