<svg width="60" height="60" viewBox="0 0 60 60" fill="none" xmlns="http://www.w3.org/2000/svg">
<path d="M26 23H36" stroke="#E83434" strokeWidth="2" strokeLinecap="round"/>
<path d="M1 6.5H12" stroke="#FBE62E" strokeWidth="2" strokeLinecap="round"/>
<path d="M6.5 12L6.5 1" stroke="#FBE62E" strokeWidth="2" strokeLinecap="round"/>
<path d="M18.8147 16.1852C19.9602 17.3306 21.8174 17.3307 22.9629 16.1852L25.9259 13.2222C27.0714 12.0767 27.0714 10.2195 25.9259 9.07407C24.7804 7.92859 22.9232 7.92859 21.7777 9.07407L20.2962 10.5555" stroke="#18E074" strokeWidth="2" strokeLinecap="round"/>
<path d="M21.1853 13.8148C20.0398 12.6694 18.1826 12.6693 17.0371 13.8148L14.0741 16.7778C12.9286 17.9233 12.9286 19.7805 14.0741 20.9259C15.2196 22.0714 17.0768 22.0714 18.2223 20.9259L19.7038 19.4445" stroke="#18E074" strokeWidth="2" strokeLinecap="round"/>
</svg>
